<svg width="25" height="25" viewBox="0 0 25 25" fill="none" xmlns="http://www.w3.org/2000/svg">
<path fill-rule="evenodd" clip-rule="evenodd" d="M9.20086 3.26304C9.56536 3.25735 9.8876 3.4988 9.98453 3.85022L14.3334 19.6168C14.4509 20.0427 14.2009 20.4833 13.7749 20.6007C13.349 20.7182 12.9085 20.4682 12.791 20.0423L11.3522 14.8259H7.4261L6.16678 20.0181C6.06264 20.4475 5.63013 20.7111 5.20075 20.607C4.77138 20.5029 4.50772 20.0704 4.61186 19.641L5.77971 14.8259H4.42305C3.98122 14.8259 3.62305 14.4677 3.62305 14.0259C3.62305 13.584 3.98122 13.2259 4.42305 13.2259H6.16778L8.43587 3.87438C8.5218 3.5201 8.83636 3.26872 9.20086 3.26304ZM7.81416 13.2259H10.9109L9.26307 7.25193L7.81416 13.2259Z" fill="white"/>
<path fill-rule="evenodd" clip-rule="evenodd" d="M14.2716 6.79887C13.4637 8.07898 12.9379 9.89672 12.9379 11.9462C12.9379 13.9958 13.4637 15.8135 14.2716 17.0936C15.086 18.384 16.1108 19.0295 17.1131 19.0295C17.9764 19.0295 18.8496 18.5552 19.6011 17.5967C19.8737 17.2489 20.3766 17.188 20.7243 17.4606C21.072 17.7332 21.1329 18.2361 20.8603 18.5838C19.9058 19.8014 18.6104 20.6295 17.1131 20.6295C15.3677 20.6295 13.9049 19.5103 12.9186 17.9475C11.9258 16.3745 11.3379 14.2506 11.3379 11.9462C11.3379 9.64193 11.9258 7.51802 12.9186 5.94494C13.9049 4.38214 15.3677 3.26294 17.1131 3.26294C18.446 3.26294 19.623 3.92137 20.5365 4.92512C20.8339 5.25188 20.8101 5.75785 20.4834 6.05524C20.1566 6.35262 19.6506 6.32881 19.3532 6.00205C18.6593 5.23953 17.8846 4.86294 17.1131 4.86294C16.1108 4.86294 15.086 5.50847 14.2716 6.79887Z" fill="white"/>
</svg>
