<svg width="25" height="25" viewBox="0 0 25 25" fill="none" xmlns="http://www.w3.org/2000/svg">
<path d="M19.3262 9.43164C19.3262 7.57513 18.5887 5.79465 17.2759 4.48189C15.9632 3.16914 14.1827 2.43164 12.3262 2.43164C10.4697 2.43164 8.68918 3.16914 7.37642 4.48189C6.06367 5.79465 5.32617 7.57513 5.32617 9.43164C5.32617 9.69686 5.43153 9.95121 5.61907 10.1387C5.8066 10.3263 6.06096 10.4316 6.32617 10.4316C6.59139 10.4316 6.84574 10.3263 7.03328 10.1387C7.22081 9.95121 7.32617 9.69686 7.32617 9.43164C7.32617 8.44273 7.61942 7.47604 8.16882 6.65379C8.71823 5.83154 9.49912 5.19068 10.4128 4.81224C11.3264 4.4338 12.3317 4.33479 13.3016 4.52771C14.2715 4.72064 15.1624 5.19684 15.8617 5.89611C16.561 6.59537 17.0372 7.48628 17.2301 8.45619C17.423 9.42609 17.324 10.4314 16.9456 11.3451C16.5671 12.2587 15.9263 13.0396 15.104 13.589C14.2818 14.1384 13.3151 14.4316 12.3262 14.4316C12.061 14.4316 11.8066 14.537 11.6191 14.7245C11.4315 14.9121 11.3262 15.1664 11.3262 15.4316V17.4316H10.3262C10.061 17.4316 9.8066 17.537 9.61907 17.7245C9.43153 17.9121 9.32617 18.1664 9.32617 18.4316C9.32617 18.6969 9.43153 18.9512 9.61907 19.1387C9.8066 19.3263 10.061 19.4316 10.3262 19.4316H11.3262V21.4316C11.3262 21.6969 11.4315 21.9512 11.6191 22.1387C11.8066 22.3263 12.061 22.4316 12.3262 22.4316C12.5914 22.4316 12.8457 22.3263 13.0333 22.1387C13.2208 21.9512 13.3262 21.6969 13.3262 21.4316V19.4316H14.3262C14.5914 19.4316 14.8457 19.3263 15.0333 19.1387C15.2208 18.9512 15.3262 18.6969 15.3262 18.4316C15.3262 18.1664 15.2208 17.9121 15.0333 17.7245C14.8457 17.537 14.5914 17.4316 14.3262 17.4316H13.3262V16.3516C14.9908 16.1114 16.5132 15.2798 17.615 14.0091C18.7168 12.7384 19.3242 11.1135 19.3262 9.43164Z" fill="white"/>
</svg>
