<svg width="25" height="25" viewBox="0 0 25 25" fill="none" xmlns="http://www.w3.org/2000/svg">
<path d="M14.7746 12.239C14.9444 12.4029 15.1717 12.4936 15.4077 12.4916C15.6437 12.4895 15.8694 12.3949 16.0363 12.228C16.2031 12.0611 16.2978 11.8354 16.2998 11.5994C16.3019 11.3635 16.2112 11.1361 16.0472 10.9664L12.5978 7.51697L16.0472 4.06817C16.2161 3.89941 16.311 3.6705 16.311 3.43178C16.3111 3.19307 16.2163 2.96411 16.0475 2.79527C15.8788 2.62643 15.6499 2.53155 15.4112 2.53149C15.1724 2.53144 14.9435 2.62621 14.7746 2.79497L12.2252 5.34437V3.43157C12.2252 3.19288 12.1304 2.96396 11.9616 2.79517C11.7929 2.62639 11.5639 2.53157 11.3252 2.53157C11.0865 2.53157 10.8576 2.62639 10.6888 2.79517C10.5201 2.96396 10.4252 3.19288 10.4252 3.43157V15.404C8.07444 15.6938 6.33984 17.0966 6.33984 18.839C6.33984 20.7974 8.52984 22.3316 11.3252 22.3316C14.1206 22.3316 16.3106 20.7974 16.3106 18.839C16.3106 17.099 14.576 15.6938 12.2252 15.404V9.68957L14.7746 12.239ZM14.5106 18.839C14.5106 19.6382 13.1486 20.5316 11.3252 20.5316C9.50184 20.5316 8.13984 19.6382 8.13984 18.839C8.13984 18.0398 9.50184 17.1464 11.3252 17.1464C13.1486 17.1464 14.5106 18.0404 14.5106 18.839Z" fill="white"/>
</svg>
