<svg width="25" height="25" viewBox="0 0 25 25" fill="none" xmlns="http://www.w3.org/2000/svg">
<path d="M19.3262 9.43155C19.3277 8.08943 18.9434 6.77516 18.2191 5.6453C17.4947 4.51545 16.4608 3.61765 15.2405 3.05888C14.0203 2.5001 12.6651 2.30391 11.3365 2.49366C10.0078 2.68342 8.76176 3.25113 7.7467 4.12916C6.73164 5.00718 5.99039 6.15851 5.61127 7.44596C5.23214 8.73342 5.23112 10.1027 5.60833 11.3907C5.98554 12.6788 6.72508 13.8312 7.73883 14.7107C8.75259 15.5903 9.99782 16.1598 11.3262 16.3515V19.0215L10.0362 17.7215C9.94293 17.6283 9.83224 17.5543 9.71042 17.5039C9.58859 17.4534 9.45803 17.4275 9.32617 17.4275C9.19431 17.4275 9.06374 17.4534 8.94192 17.5039C8.8201 17.5543 8.70941 17.6283 8.61617 17.7215C8.52293 17.8148 8.44897 17.9255 8.39851 18.0473C8.34805 18.1691 8.32208 18.2997 8.32208 18.4315C8.32208 18.5634 8.34805 18.694 8.39851 18.8158C8.44897 18.9376 8.52293 19.0483 8.61617 19.1415L11.6162 22.1415C11.7017 22.2253 11.8039 22.29 11.9162 22.3315C12.0442 22.3937 12.1839 22.4278 12.3262 22.4315C12.4557 22.4285 12.584 22.4049 12.7062 22.3615C12.8277 22.3072 12.9392 22.2328 13.0362 22.1415L16.0362 19.1415C16.2245 18.9532 16.3303 18.6978 16.3303 18.4315C16.3303 18.1652 16.2245 17.9099 16.0362 17.7215C15.8479 17.5332 15.5925 17.4275 15.3262 17.4275C15.0599 17.4275 14.8045 17.5332 14.6162 17.7215L13.3262 19.0215V16.3515C14.9908 16.1113 16.5132 15.2797 17.615 14.009C18.7168 12.7383 19.3242 11.1134 19.3262 9.43155ZM7.32617 9.43155C7.32617 8.44264 7.61941 7.47594 8.16882 6.6537C8.71823 5.83145 9.49912 5.19059 10.4128 4.81215C11.3264 4.43371 12.3317 4.33469 13.3016 4.52762C14.2715 4.72055 15.1624 5.19675 15.8617 5.89601C16.561 6.59527 17.0372 7.48619 17.2301 8.4561C17.423 9.426 17.324 10.4313 16.9456 11.345C16.5671 12.2586 15.9263 13.0395 15.104 13.5889C14.2818 14.1383 13.3151 14.4315 12.3262 14.4315C11.0001 14.4315 9.72831 13.9048 8.79063 12.9671C7.85295 12.0294 7.32617 10.7576 7.32617 9.43155Z" fill="white"/>
</svg>
