<svg width="25" height="25" viewBox="0 0 25 25" fill="none" xmlns="http://www.w3.org/2000/svg">
<path d="M18.3262 7.43164H14.9162L17.4362 5.13164C17.5424 5.04629 17.6302 4.94012 17.6939 4.81965C17.7577 4.69917 17.7961 4.56693 17.8069 4.43105C17.8177 4.29518 17.8006 4.15853 17.7566 4.0295C17.7127 3.90048 17.6428 3.7818 17.5513 3.68076C17.4598 3.57972 17.3487 3.49844 17.2246 3.44193C17.1006 3.38542 16.9663 3.35486 16.83 3.35213C16.6938 3.34941 16.5584 3.37457 16.4322 3.42607C16.306 3.47758 16.1916 3.55434 16.0962 3.65164L13.3262 6.17164V3.43164C13.3262 3.16642 13.2208 2.91207 13.0333 2.72453C12.8457 2.537 12.5914 2.43164 12.3262 2.43164C12.061 2.43164 11.8066 2.537 11.6191 2.72453C11.4315 2.91207 11.3262 3.16642 11.3262 3.43164V6.17164L8.55617 3.65164C8.35737 3.49199 8.10508 3.41431 7.85091 3.43448C7.59673 3.45466 7.35986 3.57116 7.18873 3.76017C7.0176 3.94919 6.92513 4.19643 6.93023 4.45135C6.93533 4.70628 7.03761 4.94963 7.21617 5.13164L9.73617 7.43164H6.32617C6.06096 7.43164 5.8066 7.537 5.61907 7.72453C5.43153 7.91207 5.32617 8.16642 5.32617 8.43164C5.32617 8.69686 5.43153 8.95121 5.61907 9.13875C5.8066 9.32628 6.06096 9.43164 6.32617 9.43164H9.73617L7.21617 11.7316C7.08064 11.8696 6.98799 12.0438 6.94946 12.2333C6.91092 12.4228 6.92815 12.6193 6.99905 12.7992C7.06994 12.9791 7.19148 13.1346 7.34893 13.2469C7.50638 13.3591 7.69299 13.4233 7.88617 13.4316C8.13401 13.431 8.37277 13.3383 8.55617 13.1716L11.3262 10.6916V17.4316H10.3262C10.061 17.4316 9.8066 17.537 9.61907 17.7245C9.43153 17.9121 9.32617 18.1664 9.32617 18.4316C9.32617 18.6969 9.43153 18.9512 9.61907 19.1387C9.8066 19.3263 10.061 19.4316 10.3262 19.4316H11.3262V21.4316C11.3262 21.6969 11.4315 21.9512 11.6191 22.1387C11.8066 22.3263 12.061 22.4316 12.3262 22.4316C12.5914 22.4316 12.8457 22.3263 13.0333 22.1387C13.2208 21.9512 13.3262 21.6969 13.3262 21.4316V19.4316H14.3262C14.5914 19.4316 14.8457 19.3263 15.0333 19.1387C15.2208 18.9512 15.3262 18.6969 15.3262 18.4316C15.3262 18.1664 15.2208 17.9121 15.0333 17.7245C14.8457 17.537 14.5914 17.4316 14.3262 17.4316H13.3262V10.6916L16.0962 13.2116C16.2796 13.3783 16.5183 13.471 16.7662 13.4716C16.9678 13.4711 17.1645 13.4097 17.3306 13.2953C17.4967 13.181 17.6243 13.0191 17.6968 12.831C17.7692 12.6428 17.7831 12.4372 17.7366 12.241C17.6901 12.0448 17.5854 11.8673 17.4362 11.7316L14.9162 9.43164H18.3262C18.5914 9.43164 18.8457 9.32628 19.0333 9.13875C19.2208 8.95121 19.3262 8.69686 19.3262 8.43164C19.3262 8.16642 19.2208 7.91207 19.0333 7.72453C18.8457 7.537 18.5914 7.43164 18.3262 7.43164Z" fill="white"/>
</svg>
