<svg width="25" height="25" viewBox="0 0 25 25" fill="none" xmlns="http://www.w3.org/2000/svg">
<path fill-rule="evenodd" clip-rule="evenodd" d="M19.3265 16.4321V2.43432C19.3265 1.88026 19.77 1.43213 20.3259 1.43213C20.8781 1.43213 21.3262 1.87087 21.3262 2.43432V22.4292C21.3262 22.9833 20.8828 23.4314 20.3259 23.4314C19.7737 23.4314 19.3265 22.9927 19.3265 22.4292V18.4318H4.32652C3.77432 18.4318 3.3262 17.9883 3.3262 17.4314C3.3262 16.8793 3.78088 16.4321 4.32652 16.4321H9.3262C11.5349 16.4321 13.3265 14.6405 13.3265 12.4317C13.3265 10.223 11.535 8.43142 9.3262 8.43142C7.11743 8.43142 5.32588 10.223 5.32588 12.4317C5.32588 12.9839 4.87868 13.4321 4.32649 13.4321C3.7743 13.4321 3.32617 12.9839 3.32617 12.4317C3.32617 9.11758 6.01201 6.43174 9.32617 6.43174C12.6403 6.43174 15.3262 9.11758 15.3262 12.4317C15.3262 13.9683 14.7487 15.3698 13.798 16.4321L19.3265 16.4321Z" fill="white"/>
</svg>
