<svg width="25" height="25" viewBox="0 0 25 25" fill="none" xmlns="http://www.w3.org/2000/svg">
<path d="M17.1269 14.7835C14.4629 14.0155 12.5909 11.5435 12.5909 8.78352C12.5909 6.02352 14.4629 3.52752 17.1269 2.78352C17.4389 2.68752 17.6549 2.42352 17.6549 2.08752C17.6549 1.75152 17.4389 1.46352 17.1269 1.39152C16.4309 1.19952 15.7349 1.10352 15.0149 1.10352C10.7669 1.10352 7.31088 4.55952 7.31088 8.80752C7.31088 11.8315 9.06288 14.4475 11.5829 15.6955V18.1915H7.76687C7.35887 18.1915 7.04688 18.5035 7.04688 18.9115C7.04688 19.3195 7.35887 19.6315 7.76687 19.6315H11.6069V23.2315C11.6069 23.6395 11.9189 23.9515 12.3269 23.9515C12.7349 23.9515 13.0469 23.6395 13.0469 23.2315V19.6315H16.6469C17.0549 19.6315 17.3669 19.3195 17.3669 18.9115C17.3669 18.5035 17.0549 18.1915 16.6469 18.1915H13.0469V16.2235C13.6709 16.3915 14.3429 16.4875 15.0149 16.4875C15.7349 16.4875 16.4309 16.3915 17.1269 16.1995C17.4389 16.1035 17.6549 15.8395 17.6549 15.5035C17.6549 15.1675 17.4389 14.8795 17.1269 14.7835ZM8.77488 8.78352C8.77488 5.56752 11.2229 2.90352 14.3429 2.56752C12.3989 3.98352 11.1749 6.28752 11.1749 8.78352C11.1749 11.2795 12.3989 13.5835 14.3429 14.9995C11.1989 14.6395 8.77488 11.9995 8.77488 8.78352Z" fill="white"/>
</svg>
