<svg width="25" height="25" viewBox="0 0 25 25" fill="none" xmlns="http://www.w3.org/2000/svg">
<path d="M22.2462 3.05164C22.1447 2.80729 21.9505 2.61312 21.7062 2.51164C21.586 2.4604 21.4569 2.43322 21.3262 2.43164H16.3262C16.061 2.43164 15.8066 2.537 15.6191 2.72453C15.4315 2.91207 15.3262 3.16642 15.3262 3.43164C15.3262 3.69686 15.4315 3.95121 15.6191 4.13875C15.8066 4.32628 16.061 4.43164 16.3262 4.43164H18.9162L15.2262 8.12164C13.8286 7.02466 12.1028 6.42943 10.3262 6.43164C8.74393 6.43164 7.19721 6.90083 5.88161 7.77988C4.56602 8.65894 3.54064 9.90836 2.93514 11.3702C2.32964 12.832 2.17121 14.4405 2.47989 15.9924C2.78857 17.5442 3.5505 18.9697 4.66932 20.0885C5.78814 21.2073 7.21361 21.9692 8.76545 22.2779C10.3173 22.5866 11.9258 22.4282 13.3876 21.8227C14.8495 21.2172 16.0989 20.1918 16.9779 18.8762C17.857 17.5606 18.3262 16.0139 18.3262 14.4316C18.3284 12.655 17.7332 10.9292 16.6362 9.53164L20.3262 5.84164V8.43164C20.3262 8.69686 20.4315 8.95121 20.6191 9.13875C20.8066 9.32628 21.061 9.43164 21.3262 9.43164C21.5914 9.43164 21.8457 9.32628 22.0333 9.13875C22.2208 8.95121 22.3262 8.69686 22.3262 8.43164V3.43164C22.3246 3.30096 22.2974 3.17186 22.2462 3.05164ZM10.3262 20.4316C9.13949 20.4316 7.97945 20.0797 6.99275 19.4205C6.00606 18.7612 5.23702 17.8241 4.7829 16.7277C4.32877 15.6314 4.20995 14.425 4.44146 13.2611C4.67298 12.0972 5.24442 11.0281 6.08353 10.189C6.92265 9.34989 7.99175 8.77844 9.15563 8.54693C10.3195 8.31542 11.5259 8.43424 12.6223 8.88836C13.7186 9.34249 14.6557 10.1115 15.315 11.0982C15.9743 12.0849 16.3262 13.245 16.3262 14.4316C16.3262 16.0229 15.694 17.5491 14.5688 18.6743C13.4436 19.7995 11.9175 20.4316 10.3262 20.4316V20.4316Z" fill="white"/>
</svg>
