<svg width="25" height="25" viewBox="0 0 25 25" fill="none" xmlns="http://www.w3.org/2000/svg">
<path d="M19.3252 9.43155C19.3196 7.94884 18.8434 6.50619 17.9652 5.31155L19.0652 4.10155C19.1625 4.0061 19.2393 3.89176 19.2908 3.76556C19.3423 3.63936 19.3674 3.50397 19.3647 3.36769C19.362 3.23141 19.3314 3.09713 19.2749 2.97309C19.2184 2.84906 19.1371 2.73788 19.0361 2.6464C18.935 2.55491 18.8164 2.48505 18.6873 2.4411C18.5583 2.39715 18.4217 2.38005 18.2858 2.39083C18.1499 2.40161 18.0177 2.44006 17.8972 2.50381C17.7767 2.56757 17.6705 2.65527 17.5852 2.76155L16.5852 3.88155C15.3719 2.94093 13.8804 2.43045 12.3452 2.43045C10.81 2.43045 9.31844 2.94093 8.1052 3.88155L7.1052 2.76155C6.9275 2.55999 6.67701 2.43727 6.40884 2.42039C6.14066 2.40351 5.87676 2.49386 5.6752 2.67155C5.47363 2.84925 5.35091 3.09973 5.33403 3.36791C5.31716 3.63609 5.4075 3.89999 5.5852 4.10155L6.6752 5.31155C5.97699 6.28578 5.54064 7.42298 5.40794 8.6142C5.27524 9.80542 5.45064 11.0108 5.91733 12.1148C6.38402 13.2188 7.12637 14.1844 8.07327 14.9193C9.02017 15.6541 10.1399 16.1335 11.3252 16.3116V17.4316H10.3252C10.06 17.4316 9.80563 17.5369 9.61809 17.7244C9.43055 17.912 9.3252 18.1663 9.3252 18.4316C9.3252 18.6968 9.43055 18.9511 9.61809 19.1387C9.80563 19.3262 10.06 19.4316 10.3252 19.4316H11.3252V21.4316C11.3252 21.6968 11.4306 21.9511 11.6181 22.1387C11.8056 22.3262 12.06 22.4316 12.3252 22.4316C12.5904 22.4316 12.8448 22.3262 13.0323 22.1387C13.2198 21.9511 13.3252 21.6968 13.3252 21.4316V19.4316H14.3252C14.5904 19.4316 14.8448 19.3262 15.0323 19.1387C15.2198 18.9511 15.3252 18.6968 15.3252 18.4316C15.3252 18.1663 15.2198 17.912 15.0323 17.7244C14.8448 17.5369 14.5904 17.4316 14.3252 17.4316H13.3252V16.3516C14.9898 16.1113 16.5122 15.2797 17.614 14.009C18.7158 12.7383 19.3232 11.1134 19.3252 9.43155V9.43155ZM7.3252 9.43155C7.3252 8.44264 7.61844 7.47595 8.16785 6.6537C8.71726 5.83145 9.49815 5.19059 10.4118 4.81215C11.3254 4.43372 12.3307 4.3347 13.3006 4.52762C14.2706 4.72055 15.1615 5.19675 15.8607 5.89602C16.56 6.59528 17.0362 7.48619 17.2291 8.4561C17.422 9.426 17.323 10.4313 16.9446 11.345C16.5662 12.2586 15.9253 13.0395 15.103 13.5889C14.2808 14.1383 13.3141 14.4316 12.3252 14.4316C10.9991 14.4316 9.72734 13.9048 8.78966 12.9671C7.85198 12.0294 7.3252 10.7576 7.3252 9.43155V9.43155Z" fill="white"/>
</svg>
