<svg width="25" height="25" viewBox="0 0 25 25" fill="none" xmlns="http://www.w3.org/2000/svg">
<path d="M18.9699 3.18164C17.2628 3.18164 15.7126 4.25627 14.6497 5.93998C13.9889 6.98624 13.5234 8.22944 13.2647 9.56606L11.853 4.32449C11.7529 3.95404 11.4191 3.69537 11.0353 3.69204C10.6465 3.6887 10.3044 3.94902 10.2026 4.32449L8.70416 9.89115L7.20567 4.32449C7.10555 3.95404 6.77182 3.69537 6.388 3.69204C5.99919 3.6887 5.65712 3.94902 5.55533 4.32449L1.35857 19.9151C1.29683 20.1353 1.32353 20.3706 1.437 20.5692C1.55047 20.7694 1.73736 20.9146 1.95765 20.973C2.17959 21.0331 2.41487 21.0014 2.61176 20.8862C2.80866 20.7711 2.95217 20.5809 3.00891 20.3589L6.38133 7.83211L7.81974 13.1771L6.00587 19.9151C5.94246 20.1353 5.97083 20.3706 6.0843 20.5692C6.19777 20.7677 6.38466 20.9146 6.60495 20.973C6.82689 21.0331 7.06217 21.0014 7.25906 20.8862C7.45597 20.7711 7.59947 20.5809 7.65621 20.3589L8.7058 16.4625L9.7554 20.3589H9.75373C9.81047 20.5808 9.9523 20.7711 10.1492 20.8862C10.3478 21.0014 10.5831 21.0331 10.8033 20.973C11.0253 20.9146 11.2121 20.7694 11.3256 20.5692C11.4374 20.3706 11.4658 20.1353 11.4041 19.9151L9.59019 13.1771L11.0286 7.83211L14.401 20.3589C14.4561 20.5808 14.5996 20.7711 14.7965 20.8862C14.9951 21.0014 15.2304 21.0331 15.4506 20.973C15.6709 20.9146 15.8594 20.7694 15.9729 20.5692C16.0847 20.3706 16.1131 20.1353 16.0514 19.9151L16.0363 19.86C16.899 20.5842 17.9036 21.0031 18.9699 21.0031C20.677 21.0031 22.2272 19.9284 23.29 18.2447C23.4152 18.0545 23.4569 17.8209 23.4085 17.5973C23.3601 17.3737 23.2233 17.1784 23.0297 17.0566C22.8362 16.9348 22.6025 16.8948 22.3789 16.9465C22.157 16.9982 21.9651 17.1384 21.845 17.3336C21.0006 18.6719 19.961 19.2943 18.9698 19.2943C17.9786 19.2943 16.939 18.6703 16.0946 17.3336C15.2502 15.9954 14.7363 14.0863 14.7363 12.0938C14.7363 10.0997 15.2502 8.19237 16.0946 6.85391C16.939 5.51563 17.9786 4.89322 18.9698 4.89322C19.961 4.89322 21.0006 5.51729 21.845 6.85391V6.85225C21.9651 7.04748 22.157 7.18598 22.3789 7.23771C22.6026 7.28944 22.8362 7.25106 23.0297 7.12925C23.2233 7.00576 23.3601 6.81219 23.4085 6.5886C23.4569 6.36499 23.4152 6.13138 23.29 5.93949C22.2271 4.25578 20.6768 3.18164 18.9699 3.18164Z" fill="white"/>
</svg>
