<svg width="25" height="25" viewBox="0 0 25 25" fill="none" xmlns="http://www.w3.org/2000/svg">
<g clip-path="url(#clip0_358_11)">
<path d="M5.7172 4.94018C5.53392 5.09923 5.41473 5.31949 5.38184 5.55991C5.34894 5.80034 5.4046 6.04452 5.53843 6.24695C5.66494 6.44885 5.85938 6.59893 6.08673 6.67019C6.31408 6.74145 6.55941 6.72919 6.77852 6.63562C7.70508 6.25111 8.71916 6.12734 9.711 6.2777C10.7028 6.42806 11.6347 6.84683 12.4056 7.48868C13.1766 8.13054 13.7573 8.97102 14.085 9.91918C14.4126 10.8673 14.4747 11.8871 14.2645 12.868C14.0544 13.8489 13.5799 14.7536 12.8925 15.4843C12.2051 16.2149 11.331 16.7437 10.3647 17.0132C9.39841 17.2828 8.37681 17.283 7.41044 17.0138C6.44407 16.7445 5.56975 16.2161 4.8821 15.4857C4.73802 15.263 4.51139 15.1067 4.25206 15.0511C3.99273 14.9956 3.72194 15.0453 3.49928 15.1894C3.27661 15.3334 3.1203 15.5601 3.06473 15.8194C3.00916 16.0787 3.05888 16.3495 3.20296 16.5722C3.41391 17.0199 3.65737 17.4515 3.93141 17.8636C5.00587 19.5242 6.54859 20.8288 8.3645 21.6125C10.1804 22.3962 12.1879 22.6239 14.1332 22.2667C16.0785 21.9094 17.8742 20.9834 19.2932 19.6056C20.7122 18.2279 21.6907 16.4603 22.1051 14.5264C22.5195 12.5925 22.3512 10.5791 21.6213 8.74088C20.8914 6.90266 19.6329 5.32215 18.0048 4.19921C16.3767 3.07628 14.4521 2.46135 12.4745 2.4322C10.4969 2.40304 8.55508 2.96097 6.89457 4.03542C6.48051 4.3078 6.087 4.6102 5.7172 4.94018V4.94018ZM19.0437 8.08509C20.0419 9.62368 20.4812 11.4586 20.2879 13.2824C20.0946 15.1062 19.2805 16.8083 17.982 18.1035C16.6834 19.3987 14.9793 20.2084 13.1549 20.3969C11.3306 20.5855 9.49687 20.1415 7.96086 19.1393C9.82683 19.3794 11.7149 18.9095 13.2506 17.8227C14.7863 16.7359 15.8575 15.1117 16.2517 13.2721C16.6459 11.4325 16.3343 9.51193 15.3787 7.89131C14.4232 6.27069 12.8934 5.06839 11.0929 4.52286C12.6207 4.28478 14.1847 4.49453 15.5957 5.12673C17.0068 5.75893 18.2044 6.78649 19.0437 8.08509V8.08509Z" fill="white"/>
</g>
<defs>
<clipPath id="clip0_358_11">
<rect width="24" height="24" fill="black" transform="translate(0.326172 0.431641)"/>
</clipPath>
</defs>
</svg>
