<svg width="25" height="25" viewBox="0 0 25 25" fill="none" xmlns="http://www.w3.org/2000/svg">
<path d="M21.9625 6.3172L19.8297 4.18439C19.7453 4.10095 19.645 4.03439 19.5353 3.98845L19.5203 3.9847V3.98377C19.4162 3.94252 19.3056 3.92095 19.1931 3.92095C19.0816 3.92095 18.97 3.94252 18.8659 3.98377L18.8519 3.98752V3.98845C18.7412 4.03345 18.6409 4.10095 18.5565 4.18439L16.4237 6.3172C16.0825 6.66971 16.0872 7.23126 16.434 7.57907C16.7819 7.92594 17.3425 7.93062 17.6959 7.58938L18.2959 6.99219V8.37968C18.2959 11.1303 16.0919 13.4103 13.2288 13.8126V6.99224L13.8288 7.58943C13.9966 7.76287 14.2272 7.86224 14.4682 7.86411C14.7101 7.86599 14.9416 7.7713 15.1132 7.60066C15.2838 7.43004 15.3785 7.19754 15.3766 6.9566C15.3738 6.71473 15.2754 6.48505 15.1019 6.31722L12.9635 4.18441C12.8791 4.10097 12.7788 4.03441 12.6682 3.98847L12.6541 3.98472V3.98378C12.5501 3.94253 12.4385 3.92097 12.326 3.92097C12.2135 3.92097 12.1029 3.94253 11.9988 3.98378L11.9847 3.98753L11.9838 3.98847C11.8741 4.03441 11.7738 4.10097 11.6894 4.18441L9.5566 6.31722C9.21535 6.66973 9.22005 7.23128 9.56692 7.57909C9.91472 7.92596 10.4763 7.93064 10.8288 7.5894L11.4288 6.99221V13.8116C8.56559 13.4094 6.36167 11.1303 6.36167 8.37869V6.99214L6.96167 7.58933C7.31512 7.93058 7.87667 7.92588 8.22354 7.57902C8.57041 7.23121 8.57605 6.66963 8.23479 6.31714L6.09634 4.18434C6.01197 4.1009 5.91166 4.0334 5.80196 3.9884L5.78602 3.98371C5.68196 3.94246 5.5704 3.9209 5.45883 3.9209C5.34633 3.9209 5.2357 3.94246 5.13164 3.98371L5.11664 3.98746V3.9884C5.00695 4.03434 4.90664 4.1009 4.82225 4.18434L2.68945 6.31714C2.33789 6.6687 2.33789 7.2387 2.68945 7.59027C3.041 7.94089 3.611 7.94089 3.96257 7.58933L4.55883 6.99214V8.37963C4.55883 12.1193 7.56627 15.2074 11.4259 15.6283V17.4162L10.0516 17.4171C9.55469 17.4171 9.15157 17.8202 9.15157 18.3171C9.15157 18.814 9.55469 19.2171 10.0516 19.2171H11.4259V20.043C11.4259 20.5399 11.8291 20.943 12.3259 20.943C12.8228 20.943 13.2259 20.5399 13.2259 20.043V19.2171H14.6003C15.0972 19.2171 15.5003 18.814 15.5003 18.3171C15.5003 17.8202 15.0972 17.4171 14.6003 17.4171H13.2259V15.6293C17.0856 15.2093 20.0931 12.1202 20.0931 8.38057V6.99212L20.6893 7.58931C21.0409 7.94086 21.6109 7.94086 21.9625 7.59025C22.1312 7.4215 22.2259 7.1918 22.2259 6.9537C22.2259 6.71464 22.1312 6.48589 21.9625 6.31715L21.9625 6.3172Z" fill="white"/>
</svg>
