<svg width="25" height="25" viewBox="0 0 25 25" fill="none" xmlns="http://www.w3.org/2000/svg">
<path d="M2.32618 18.9417C2.32618 19.8699 2.69493 20.7602 3.3513 21.4165C4.00768 22.0729 4.89792 22.4417 5.82618 22.4417C6.75444 22.4417 7.64468 22.0729 8.30105 21.4165C8.95743 20.7602 9.32618 19.8699 9.32618 18.9417C9.32343 18.6517 9.28651 18.363 9.21618 18.0817C9.17344 17.9151 9.11999 17.7514 9.05618 17.5917C9.05618 17.5917 9.00618 17.4917 8.97618 17.4317L8.82618 17.1417L8.70618 16.9717L8.53618 16.7317L8.39618 16.5717L8.18618 16.3617L8.02618 16.2317C7.954 16.1661 7.87713 16.106 7.79618 16.0517L7.61618 15.9417C7.53303 15.8858 7.44616 15.8357 7.35618 15.7917L7.17618 15.7117L6.85618 15.6017L6.69618 15.5517L6.64618 15.5517C5.77331 14.3567 5.31028 12.9114 5.32618 11.4317C5.32618 9.57515 6.06368 7.79467 7.37643 6.48192C8.68919 5.16916 10.4697 4.43166 12.3262 4.43166C14.1827 4.43166 15.9632 5.16916 17.2759 6.48192C18.5887 7.79467 19.3262 9.57515 19.3262 11.4317C19.3378 12.9046 18.8749 14.3422 18.0062 15.5317V15.5317L17.8462 15.5817L17.5262 15.6917L17.3262 15.7917L17.0562 15.9417L16.8862 16.0517C16.7949 16.1047 16.708 16.1649 16.6262 16.2317L16.4662 16.3617L16.2562 16.5717L16.1162 16.7317L15.9362 16.9717C15.9031 17.0306 15.8663 17.0873 15.8262 17.1417C15.7687 17.2343 15.7186 17.3313 15.6762 17.4317C15.6456 17.4795 15.6189 17.5297 15.5962 17.5817C15.5324 17.7414 15.4789 17.9051 15.4362 18.0717C15.3651 18.3563 15.3281 18.6483 15.3262 18.9417C15.3248 19.573 15.4942 20.193 15.8164 20.7359C16.1387 21.2788 16.6017 21.7244 17.1566 22.0256C17.7115 22.3268 18.3375 22.4722 18.9684 22.4466C19.5992 22.4209 20.2113 22.2251 20.7399 21.8799C21.2685 21.5347 21.6939 21.0529 21.971 20.4856C22.2481 19.9184 22.3666 19.2867 22.314 18.6575C22.2613 18.0284 22.0395 17.4252 21.6719 16.9119C21.3044 16.3986 20.8048 15.9942 20.2262 15.7417C20.8832 14.5378 21.2564 13.1998 21.3173 11.8297C21.3782 10.4596 21.1252 9.09375 20.5776 7.83639C20.03 6.57903 19.2023 5.46344 18.1576 4.57483C17.113 3.68622 15.8792 3.0481 14.5503 2.70919C13.2214 2.37028 11.8326 2.33955 10.49 2.61936C9.1474 2.89916 7.88651 3.48209 6.80362 4.32363C5.72073 5.16516 4.84448 6.24305 4.2418 7.47496C3.63911 8.70687 3.32593 10.0602 3.32618 11.4317C3.32512 12.9347 3.70348 14.4137 4.42618 15.7317C3.8009 16.0032 3.26882 16.4518 2.89563 17.0223C2.52243 17.5927 2.32447 18.26 2.32618 18.9417V18.9417ZM18.8262 20.4317C18.4301 20.4317 18.0501 20.275 17.769 19.9959C17.488 19.7167 17.3288 19.3378 17.3262 18.9417C17.3128 18.8153 17.3128 18.688 17.3262 18.5617C17.3942 18.27 17.5492 18.0058 17.7706 17.804C17.992 17.6022 18.2694 17.4724 18.5662 17.4317L18.8262 17.4317C19.224 17.4317 19.6055 17.5897 19.8868 17.871C20.1681 18.1523 20.3262 18.5338 20.3262 18.9317C20.3262 19.3295 20.1681 19.711 19.8868 19.9923C19.6055 20.2736 19.224 20.4317 18.8262 20.4317V20.4317ZM5.82618 20.4317C5.42835 20.4317 5.04682 20.2736 4.76552 19.9923C4.48422 19.711 4.32618 19.3295 4.32618 18.9317C4.32618 18.5338 4.48422 18.1523 4.76552 17.871C5.04682 17.5897 5.42835 17.4317 5.82618 17.4317L5.99618 17.4317C6.11114 17.4456 6.2228 17.4795 6.32618 17.5317L6.46618 17.5317C6.56312 17.5765 6.65388 17.6336 6.73618 17.7017C6.77634 17.719 6.81348 17.7426 6.84618 17.7717C6.92997 17.8489 7.00386 17.9362 7.06618 18.0317L7.12618 18.1017C7.20634 18.2321 7.26698 18.3736 7.30618 18.5217V18.5217C7.32914 18.6604 7.33585 18.8014 7.32618 18.9417C7.32354 19.3378 7.16434 19.7167 6.88332 19.9959C6.6023 20.275 6.22228 20.4317 5.82618 20.4317Z" fill="white"/>
</svg>
