<svg width="25" height="25" viewBox="0 0 25 25" fill="none" xmlns="http://www.w3.org/2000/svg">
<path d="M12.3258 2.53174C9.69994 2.53174 7.18162 3.57519 5.32546 5.43142C3.4693 7.28765 2.42578 9.8059 2.42578 12.4317C2.42578 15.0576 3.46923 17.5759 5.32546 19.4321C7.18169 21.2882 9.69994 22.3317 12.3258 22.3317C14.9516 22.3317 17.4699 21.2883 19.3261 19.4321C21.1823 17.5758 22.2258 15.0576 22.2258 12.4317C22.223 9.80662 21.1786 7.29046 19.3223 5.43526C17.4669 3.579 14.9507 2.53462 12.3258 2.53174ZM20.3732 11.5317H13.2258V4.3843C15.0502 4.59149 16.7509 5.41085 18.0483 6.7093C19.3468 8.00679 20.1662 9.70738 20.3733 11.5319L20.3732 11.5317ZM11.4258 4.3843V11.5317H4.27834C4.48553 9.70735 5.30489 8.00662 6.60334 6.70918C7.90083 5.41073 9.60142 4.59137 11.4259 4.38418L11.4258 4.3843ZM4.27834 13.3317H11.4258V20.4792C9.6014 20.272 7.90066 19.4526 6.60322 18.1542C5.30477 16.8567 4.48541 15.1561 4.27822 13.3316L4.27834 13.3317ZM13.2258 20.4792V13.3317H20.3732C20.166 15.1561 19.3467 16.8569 18.0482 18.1543C16.7507 19.4527 15.0501 20.2721 13.2257 20.4793L13.2258 20.4792Z" fill="white"/>
</svg>
