<svg width="25" height="25" viewBox="0 0 25 25" fill="none" xmlns="http://www.w3.org/2000/svg">
<path d="M17.0361 8.14158C17.1298 8.04862 17.2042 7.93802 17.255 7.81616C17.3058 7.6943 17.3319 7.56359 17.3319 7.43158C17.3319 7.29957 17.3058 7.16886 17.255 7.047C17.2042 6.92514 17.1298 6.81454 17.0361 6.72158L13.0361 2.72158C12.9431 2.62785 12.8325 2.55346 12.7107 2.50269C12.5888 2.45192 12.4581 2.42578 12.3261 2.42578C12.1941 2.42578 12.0634 2.45192 11.9415 2.50269C11.8197 2.55346 11.7091 2.62785 11.6161 2.72158L7.61611 6.72158C7.52238 6.81454 7.44799 6.92514 7.39722 7.047C7.34645 7.16886 7.32031 7.29957 7.32031 7.43158C7.32031 7.56359 7.34645 7.6943 7.39722 7.81616C7.44799 7.93802 7.52238 8.04862 7.61611 8.14158L11.3261 11.8416V17.4316H9.32611C9.06089 17.4316 8.80654 17.5369 8.619 17.7245C8.43147 17.912 8.32611 18.1664 8.32611 18.4316C8.32611 18.6968 8.43147 18.9512 8.619 19.1387C8.80654 19.3262 9.06089 19.4316 9.32611 19.4316H11.3261V21.4316C11.3261 21.6968 11.4315 21.9512 11.619 22.1387C11.8065 22.3262 12.0609 22.4316 12.3261 22.4316C12.5913 22.4316 12.8457 22.3262 13.0332 22.1387C13.2208 21.9512 13.3261 21.6968 13.3261 21.4316V19.4316H15.3261C15.5913 19.4316 15.8457 19.3262 16.0332 19.1387C16.2208 18.9512 16.3261 18.6968 16.3261 18.4316C16.3261 18.1664 16.2208 17.912 16.0332 17.7245C15.8457 17.5369 15.5913 17.4316 15.3261 17.4316H13.3261V11.8416L17.0361 8.14158ZM12.3261 4.84158L14.9161 7.43158L12.3261 10.0216L9.73611 7.43158L12.3261 4.84158Z" fill="white"/>
</svg>
