<svg width="25" height="25" viewBox="0 0 25 25" fill="none" xmlns="http://www.w3.org/2000/svg">
<path d="M21.3262 7.43164C21.3262 7.16642 21.2208 6.91207 21.0333 6.72453C20.8457 6.537 20.5914 6.43164 20.3262 6.43164C20.061 6.43164 19.8066 6.537 19.6191 6.72453C19.4315 6.91207 19.3262 7.16642 19.3262 7.43164C19.3262 9.28816 18.5887 11.0686 17.2759 12.3814C15.9632 13.6941 14.1827 14.4316 12.3262 14.4316C10.4697 14.4316 8.68918 13.6941 7.37642 12.3814C6.06367 11.0686 5.32617 9.28816 5.32617 7.43164C5.32617 7.16642 5.22081 6.91207 5.03328 6.72453C4.84574 6.537 4.59139 6.43164 4.32617 6.43164C4.06096 6.43164 3.8066 6.537 3.61907 6.72453C3.43153 6.91207 3.32617 7.16642 3.32617 7.43164C3.32722 9.6447 4.14363 11.7798 5.61939 13.429C7.09516 15.0781 9.12681 16.1257 11.3262 16.3716V17.4316H10.3262C10.061 17.4316 9.8066 17.537 9.61907 17.7245C9.43153 17.9121 9.32617 18.1664 9.32617 18.4316C9.32617 18.6969 9.43153 18.9512 9.61907 19.1387C9.8066 19.3263 10.061 19.4316 10.3262 19.4316H11.3262V21.4316C11.3262 21.6969 11.4315 21.9512 11.6191 22.1387C11.8066 22.3263 12.061 22.4316 12.3262 22.4316C12.5914 22.4316 12.8457 22.3263 13.0333 22.1387C13.2208 21.9512 13.3262 21.6969 13.3262 21.4316V19.4316H14.3262C14.5914 19.4316 14.8457 19.3263 15.0333 19.1387C15.2208 18.9512 15.3262 18.6969 15.3262 18.4316C15.3262 18.1664 15.2208 17.9121 15.0333 17.7245C14.8457 17.537 14.5914 17.4316 14.3262 17.4316H13.3262V16.3716C15.5255 16.1257 17.5572 15.0781 19.033 13.429C20.5087 11.7798 21.3251 9.6447 21.3262 7.43164V7.43164Z" fill="white"/>
<path d="M12.3262 12.4316C13.3151 12.4316 14.2818 12.1384 15.104 11.589C15.9263 11.0396 16.5671 10.2587 16.9456 9.34506C17.324 8.43143 17.423 7.4261 17.2301 6.45619C17.0372 5.48629 16.561 4.59537 15.8617 3.89611C15.1624 3.19685 14.2715 2.72064 13.3016 2.52772C12.3317 2.33479 11.3264 2.43381 10.4128 2.81225C9.49912 3.19068 8.71823 3.83155 8.16882 4.65379C7.61942 5.47604 7.32617 6.44274 7.32617 7.43164C7.32617 8.75773 7.85296 10.0295 8.79064 10.9672C9.72832 11.9049 11.0001 12.4316 12.3262 12.4316V12.4316ZM12.3262 4.43164C12.9195 4.43164 13.4995 4.60759 13.9929 4.93723C14.4862 5.26688 14.8707 5.73541 15.0978 6.28359C15.3249 6.83177 15.3843 7.43497 15.2685 8.01691C15.1528 8.59886 14.8671 9.13341 14.4475 9.55296C14.0279 9.97252 13.4934 10.2582 12.9114 10.374C12.3295 10.4898 11.7263 10.4303 11.1781 10.2033C10.6299 9.97622 10.1614 9.5917 9.83176 9.09835C9.50212 8.60501 9.32617 8.02499 9.32617 7.43164C9.32617 6.63599 9.64224 5.87293 10.2049 5.31032C10.7675 4.74771 11.5305 4.43164 12.3262 4.43164V4.43164Z" fill="white"/>
</svg>
