<svg width="25" height="25" viewBox="0 0 25 25" fill="none" xmlns="http://www.w3.org/2000/svg">
<path d="M18.3262 15.4316C18.061 15.4316 17.8066 15.537 17.6191 15.7245C17.4315 15.9121 17.3262 16.1664 17.3262 16.4316C17.3262 17.6316 17.1262 20.4316 15.3262 20.4316C13.8862 20.4316 13.3262 19.8716 13.3262 18.4316C13.538 17.2559 13.9363 16.1216 14.5062 15.0716C15.5062 12.7716 16.6062 10.3916 15.5662 8.77164C15.1857 8.28992 14.6881 7.9138 14.1209 7.6792C13.5536 7.4446 12.9357 7.35937 12.3262 7.43164C11.7412 7.42755 11.1637 7.56337 10.6418 7.82778C10.12 8.09219 9.66888 8.47752 9.32617 8.95164V7.43164H10.3262C10.5914 7.43164 10.8457 7.32628 11.0333 7.13875C11.2208 6.95121 11.3262 6.69686 11.3262 6.43164C11.3262 6.16642 11.2208 5.91207 11.0333 5.72453C10.8457 5.537 10.5914 5.43164 10.3262 5.43164H9.32617V3.43164C9.32617 3.16642 9.22081 2.91207 9.03328 2.72453C8.84574 2.537 8.59139 2.43164 8.32617 2.43164C8.06096 2.43164 7.8066 2.537 7.61907 2.72453C7.43153 2.91207 7.32617 3.16642 7.32617 3.43164V5.43164H6.32617C6.06096 5.43164 5.8066 5.537 5.61907 5.72453C5.43153 5.91207 5.32617 6.16642 5.32617 6.43164C5.32617 6.69686 5.43153 6.95121 5.61907 7.13875C5.8066 7.32628 6.06096 7.43164 6.32617 7.43164H7.32617V16.4316C7.32617 16.6969 7.43153 16.9512 7.61907 17.1387C7.8066 17.3263 8.06096 17.4316 8.32617 17.4316C8.59139 17.4316 8.84574 17.3263 9.03328 17.1387C9.22081 16.9512 9.32617 16.6969 9.32617 16.4316C9.32617 14.6116 9.88617 9.43164 12.3262 9.43164C13.1462 9.43164 13.7062 9.58164 13.8862 9.85164C14.3362 10.5616 13.3362 12.7816 12.6762 14.2516C11.9681 15.548 11.5101 16.966 11.3262 18.4316C11.2696 18.9708 11.3342 19.5158 11.5152 20.0269C11.6962 20.5379 11.9891 21.002 12.3724 21.3854C12.7558 21.7687 13.2199 22.0616 13.731 22.2426C14.242 22.4236 14.787 22.4882 15.3262 22.4316C17.8262 22.4316 19.3262 20.1916 19.3262 16.4316C19.3262 16.1664 19.2208 15.9121 19.0333 15.7245C18.8457 15.537 18.5914 15.4316 18.3262 15.4316Z" fill="white"/>
</svg>
