<svg width="25" height="25" viewBox="0 0 25 25" fill="none" xmlns="http://www.w3.org/2000/svg">
<path d="M12.3262 2.43164C10.3484 2.43164 8.41497 3.01813 6.77047 4.11694C5.12598 5.21576 3.84426 6.77754 3.08738 8.60481C2.3305 10.4321 2.13247 12.4427 2.51832 14.3825C2.90418 16.3224 3.85658 18.1042 5.25511 19.5027C6.65363 20.9012 8.43546 21.8536 10.3753 22.2395C12.3151 22.6253 14.3258 22.4273 16.153 21.6704C17.9803 20.9136 19.5421 19.6318 20.6409 17.9873C21.7397 16.3429 22.3262 14.4095 22.3262 12.4316C22.3262 11.1184 22.0675 9.81806 21.565 8.60481C21.0624 7.39155 20.3258 6.28916 19.3972 5.36057C18.4687 4.43199 17.3663 3.69539 16.153 3.19285C14.9398 2.6903 13.6394 2.43164 12.3262 2.43164V2.43164ZM12.3262 20.4316C10.7439 20.4316 9.19721 19.9624 7.88161 19.0834C6.56602 18.2043 5.54064 16.9549 4.93514 15.4931C4.32964 14.0313 4.17121 12.4228 4.47989 10.8709C4.78858 9.31907 5.5505 7.89361 6.66932 6.77479C7.78814 5.65597 9.21361 4.89404 10.7655 4.58536C12.3173 4.27668 13.9258 4.4351 15.3876 5.0406C16.8495 5.64611 18.0989 6.67149 18.9779 7.98708C19.857 9.30267 20.3262 10.8494 20.3262 12.4316C20.3262 14.5534 19.4833 16.5882 17.983 18.0885C16.4827 19.5888 14.4479 20.4316 12.3262 20.4316V20.4316Z" fill="white"/>
<path d="M12.3262 14.4316C13.4307 14.4316 14.3262 13.5362 14.3262 12.4316C14.3262 11.3271 13.4307 10.4316 12.3262 10.4316C11.2216 10.4316 10.3262 11.3271 10.3262 12.4316C10.3262 13.5362 11.2216 14.4316 12.3262 14.4316Z" fill="white"/>
</svg>
