<svg width="25" height="25" viewBox="0 0 25 25" fill="none" xmlns="http://www.w3.org/2000/svg">
<path d="M21.3262 14.4316H19.3262V4.43164H21.3262C21.5914 4.43164 21.8457 4.32628 22.0333 4.13875C22.2208 3.95121 22.3262 3.69686 22.3262 3.43164C22.3262 3.16642 22.2208 2.91207 22.0333 2.72453C21.8457 2.537 21.5914 2.43164 21.3262 2.43164H18.3262C18.061 2.43164 17.8066 2.537 17.6191 2.72453C17.4315 2.91207 17.3262 3.16642 17.3262 3.43164V8.43164H13.3262V3.43164C13.3262 3.16642 13.2208 2.91207 13.0333 2.72453C12.8457 2.537 12.5914 2.43164 12.3262 2.43164C12.061 2.43164 11.8066 2.537 11.6191 2.72453C11.4315 2.91207 11.3262 3.16642 11.3262 3.43164V8.43164H7.32617V3.43164C7.32617 3.16642 7.22081 2.91207 7.03328 2.72453C6.84574 2.537 6.59139 2.43164 6.32617 2.43164H3.32617C3.06096 2.43164 2.8066 2.537 2.61907 2.72453C2.43153 2.91207 2.32617 3.16642 2.32617 3.43164C2.32617 3.69686 2.43153 3.95121 2.61907 4.13875C2.8066 4.32628 3.06096 4.43164 3.32617 4.43164H5.32617V14.4316H3.32617C3.06096 14.4316 2.8066 14.537 2.61907 14.7245C2.43153 14.9121 2.32617 15.1664 2.32617 15.4316C2.32617 15.6969 2.43153 15.9512 2.61907 16.1387C2.8066 16.3263 3.06096 16.4316 3.32617 16.4316H6.32617C6.59139 16.4316 6.84574 16.3263 7.03328 16.1387C7.22081 15.9512 7.32617 15.6969 7.32617 15.4316V10.4316H11.3262V14.5716C10.3835 14.815 9.56198 15.3939 9.01557 16.1996C8.46916 17.0054 8.23538 17.9828 8.35805 18.9486C8.48073 19.9145 8.95143 20.8024 9.68194 21.446C10.4124 22.0896 11.3526 22.4446 12.3262 22.4446C13.2997 22.4446 14.2399 22.0896 14.9704 21.446C15.7009 20.8024 16.1716 19.9145 16.2943 18.9486C16.417 17.9828 16.1832 17.0054 15.6368 16.1996C15.0904 15.3939 14.2688 14.815 13.3262 14.5716V10.4316H17.3262V15.4316C17.3262 15.6969 17.4315 15.9512 17.6191 16.1387C17.8066 16.3263 18.061 16.4316 18.3262 16.4316H21.3262C21.5914 16.4316 21.8457 16.3263 22.0333 16.1387C22.2208 15.9512 22.3262 15.6969 22.3262 15.4316C22.3262 15.1664 22.2208 14.9121 22.0333 14.7245C21.8457 14.537 21.5914 14.4316 21.3262 14.4316ZM14.3262 18.4316C14.3262 18.8272 14.2089 19.2139 13.9891 19.5428C13.7693 19.8717 13.457 20.128 13.0915 20.2794C12.7261 20.4308 12.324 20.4704 11.936 20.3932C11.548 20.316 11.1917 20.1256 10.912 19.8459C10.6323 19.5661 10.4418 19.2098 10.3646 18.8218C10.2874 18.4339 10.327 18.0317 10.4784 17.6663C10.6298 17.3008 10.8861 16.9885 11.215 16.7687C11.5439 16.5489 11.9306 16.4316 12.3262 16.4316C12.8566 16.4316 13.3653 16.6424 13.7404 17.0174C14.1155 17.3925 14.3262 17.9012 14.3262 18.4316Z" fill="white"/>
</svg>
