<svg width="25" height="25" viewBox="0 0 25 25" fill="none" xmlns="http://www.w3.org/2000/svg">
<path d="M19.3262 9.43155C19.3277 8.08943 18.9435 6.77516 18.2191 5.6453C17.4947 4.51545 16.4608 3.61765 15.2405 3.05888C14.0203 2.5001 12.6651 2.30391 11.3365 2.49366C10.0078 2.68342 8.76176 3.25113 7.7467 4.12916C6.73164 5.00718 5.99039 6.15851 5.61127 7.44596C5.23214 8.73342 5.23112 10.1027 5.60833 11.3907C5.98554 12.6788 6.72508 13.8312 7.73883 14.7107C8.75259 15.5903 9.99782 16.1598 11.3262 16.3515V17.4315H10.3262C10.061 17.4315 9.8066 17.5369 9.61906 17.7244C9.43152 17.912 9.32617 18.1663 9.32617 18.4315C9.32617 18.6968 9.43152 18.9511 9.61906 19.1387C9.8066 19.3262 10.061 19.4315 10.3262 19.4315H11.3262V21.4315C11.3262 21.6968 11.4315 21.9511 11.6191 22.1387C11.8066 22.3262 12.061 22.4315 12.3262 22.4315C12.5914 22.4315 12.8457 22.3262 13.0333 22.1387C13.2208 21.9511 13.3262 21.6968 13.3262 21.4315V19.4315H14.3262C14.5914 19.4315 14.8457 19.3262 15.0333 19.1387C15.2208 18.9511 15.3262 18.6968 15.3262 18.4315C15.3262 18.1663 15.2208 17.912 15.0333 17.7244C14.8457 17.5369 14.5914 17.4315 14.3262 17.4315H13.3262V16.3515C14.9908 16.1113 16.5132 15.2797 17.615 14.009C18.7168 12.7383 19.3242 11.1134 19.3262 9.43155V9.43155ZM7.32617 9.43155C7.32617 8.44264 7.61941 7.47594 8.16882 6.6537C8.71823 5.83145 9.49912 5.19059 10.4128 4.81215C11.3264 4.43371 12.3317 4.33469 13.3016 4.52762C14.2715 4.72055 15.1624 5.19675 15.8617 5.89601C16.561 6.59528 17.0372 7.48619 17.2301 8.4561C17.423 9.426 17.324 10.4313 16.9456 11.345C16.5671 12.2586 15.9263 13.0395 15.104 13.5889C14.2818 14.1383 13.3151 14.4315 12.3262 14.4315C11.0001 14.4315 9.72831 13.9048 8.79063 12.9671C7.85295 12.0294 7.32617 10.7576 7.32617 9.43155V9.43155Z" fill="white"/>
</svg>
