<svg width="25" height="25" viewBox="0 0 25 25" fill="none" xmlns="http://www.w3.org/2000/svg">
<path d="M21.3262 14.4317H18.3262C18.1946 14.4309 18.0641 14.4561 17.9423 14.5059C17.8204 14.5557 17.7096 14.629 17.6162 14.7217L12.3262 20.0217L7.03617 14.7217C6.94273 14.629 6.83192 14.5557 6.71008 14.5059C6.58824 14.4561 6.45778 14.4309 6.32617 14.4317H3.32617C3.06096 14.4317 2.8066 14.537 2.61907 14.7246C2.43153 14.9121 2.32617 15.1664 2.32617 15.4317C2.32617 15.6969 2.43153 15.9512 2.61907 16.1388C2.8066 16.3263 3.06096 16.4317 3.32617 16.4317H5.91617L11.6162 22.1417C11.7091 22.2354 11.8197 22.3098 11.9416 22.3605C12.0635 22.4113 12.1942 22.4375 12.3262 22.4375C12.4582 22.4375 12.5889 22.4113 12.7107 22.3605C12.8326 22.3098 12.9432 22.2354 13.0362 22.1417L18.7362 16.4317H21.3262C21.5914 16.4317 21.8457 16.3263 22.0333 16.1388C22.2208 15.9512 22.3262 15.6969 22.3262 15.4317C22.3262 15.1664 22.2208 14.9121 22.0333 14.7246C21.8457 14.537 21.5914 14.4317 21.3262 14.4317Z" fill="white"/>
<path d="M11.6164 18.1416C11.7093 18.2353 11.8199 18.3097 11.9418 18.3605C12.0636 18.4112 12.1943 18.4374 12.3264 18.4374C12.4584 18.4374 12.5891 18.4112 12.7109 18.3605C12.8328 18.3097 12.9434 18.2353 13.0364 18.1416L19.0364 12.1416C19.1296 12.0483 19.2036 11.9377 19.254 11.8158C19.3045 11.694 19.3304 11.5634 19.3304 11.4316C19.3304 11.2997 19.3045 11.1692 19.254 11.0473C19.2036 10.9255 19.1296 10.8148 19.0364 10.7216C18.9431 10.6283 18.8324 10.5544 18.7106 10.5039C18.5888 10.4535 18.4582 10.4275 18.3264 10.4275C18.1945 10.4275 18.0639 10.4535 17.9421 10.5039C17.8203 10.5544 17.7096 10.6283 17.6164 10.7216L12.3264 16.0216L7.03636 10.7216C6.84805 10.5333 6.59266 10.4275 6.32636 10.4275C6.06006 10.4275 5.80466 10.5333 5.61636 10.7216C5.42805 10.9099 5.32227 11.1653 5.32227 11.4316C5.32227 11.6979 5.42805 11.9533 5.61636 12.1416L11.6164 18.1416Z" fill="white"/>
<path d="M12.3262 8.43164C12.5914 8.43164 12.8457 8.537 13.0333 8.72453C13.2208 8.91207 13.3262 9.16642 13.3262 9.43164C13.3262 9.69686 13.2208 9.95121 13.0333 10.1387C12.8457 10.3263 12.5914 10.4316 12.3262 10.4316C12.061 10.4316 11.8066 10.537 11.6191 10.7245C11.4315 10.9121 11.3262 11.1664 11.3262 11.4316C11.3262 11.6969 11.4315 11.9512 11.6191 12.1387C11.8066 12.3263 12.061 12.4316 12.3262 12.4316C13.1218 12.4316 13.8849 12.1156 14.4475 11.553C15.0101 10.9904 15.3262 10.2273 15.3262 9.43164C15.3262 8.63599 15.0101 7.87293 14.4475 7.31032C13.8849 6.74771 13.1218 6.43164 12.3262 6.43164C12.061 6.43164 11.8066 6.32628 11.6191 6.13875C11.4315 5.95121 11.3262 5.69686 11.3262 5.43164C11.3262 5.16642 11.4315 4.91207 11.6191 4.72453C11.8066 4.537 12.061 4.43164 12.3262 4.43164C12.5914 4.43164 12.8457 4.32628 13.0333 4.13875C13.2208 3.95121 13.3262 3.69686 13.3262 3.43164C13.3262 3.16642 13.2208 2.91207 13.0333 2.72453C12.8457 2.537 12.5914 2.43164 12.3262 2.43164C11.5305 2.43164 10.7675 2.74771 10.2049 3.31032C9.64224 3.87293 9.32617 4.63599 9.32617 5.43164C9.32617 6.22729 9.64224 6.99035 10.2049 7.55296C10.7675 8.11557 11.5305 8.43164 12.3262 8.43164Z" fill="white"/>
</svg>
