<svg width="50" height="50" viewBox="0 0 50 50" fill="none" xmlns="http://www.w3.org/2000/svg">
<g clip-path="url(#clip0_662_314)">
<path fill-rule="evenodd" clip-rule="evenodd" d="M22.3296 0.0671301C15.1525 0.880033 8.94168 4.5255 4.70721 10.4108C3.29269 12.3767 2.02979 14.9044 1.19471 17.4408L0.800151 18.6392C0.800151 18.6392 5.62164e-08 21.1987 2.81082e-08 24.6428C0 28.087 0.859627 31.0609 0.859627 31.0609L1.3808 32.4722C2.62747 35.8478 3.42112 37.3509 5.21275 39.7302C8.64965 44.2944 13.3415 47.3289 19.1576 48.7492C21.5005 49.3213 22.2971 49.4079 25.2026 49.4056C28.0263 49.4035 28.6315 49.3337 30.9989 48.7362C37.9334 46.9859 43.3405 42.8412 46.7871 36.6341C48.209 34.0733 49.3549 30.3722 49.6984 27.2302C49.8302 26.0261 49.8262 23.1802 49.6911 21.9592C49.267 18.1269 47.9138 14.4024 45.7677 11.1611C41.775 5.13074 35.8522 1.3014 28.8316 0.211283C27.5874 0.0180374 23.5526 -0.0713779 22.3296 0.0671301ZM24.7131 2.50745C24.5277 3.24213 24.2927 4.11532 24.191 4.44798C24.0894 4.78064 23.7484 6.0508 23.4335 7.27056C22.5317 10.7639 21.6933 13.8393 21.3587 14.8814C20.4333 17.7641 18.8163 19.4786 16.1804 20.372C15.9032 20.4659 13.7711 21.0405 11.4425 21.6489C5.43261 23.219 1.57566 24.2641 1.48846 24.3461C1.36799 24.4593 6.63211 25.9479 12.8034 27.5457C14.8637 28.0791 16.9226 28.7318 17.4117 29.0065C18.9748 29.8845 19.9318 30.9013 20.6734 32.4722C21.3075 33.8151 21.3214 33.7478 20.3446 34.0684C19.1218 34.4698 18.2365 34.638 16.9824 34.7069C14.6109 34.8375 13.2662 34.2857 12.5189 32.8754C12.2851 32.4343 12.2537 32.2644 12.2671 31.5145C12.2755 31.0432 12.2975 30.5512 12.3161 30.4211C12.3471 30.2027 12.2535 30.1502 11.1024 29.7406C10.4164 29.4965 9.82475 29.2968 9.78765 29.2968C9.68291 29.2968 8.61376 31.3851 8.32838 32.1472C7.42626 34.5559 7.65237 36.636 8.93906 37.7657C10.7454 39.3517 14.8253 38.9587 20.1537 36.6854C23.6205 35.2062 28.6312 32.2441 30.9812 30.2847C31.9863 29.4465 33.0113 28.827 33.8472 28.5525C34.5709 28.3149 35.5024 28.0515 38.3578 27.2769C44.5201 25.6052 45.1844 25.4206 47.8305 24.6428C48.5051 24.4445 48.523 24.4312 48.2841 24.307C48.0655 24.1934 45.2753 23.4055 42.0194 22.5381C39.974 21.993 39.2071 21.7306 39.2889 21.6037C39.3312 21.538 39.6542 21.0533 40.0065 20.5266C41.6844 18.0185 42.5588 15.5165 42.412 13.6435C42.2905 12.0913 41.519 11.1691 39.9203 10.6648C39.1767 10.4302 37.8678 10.3407 36.7928 10.451C34.8617 10.6492 30.9667 11.8067 31.0206 12.1664C31.0532 12.3835 31.5811 14.422 31.6161 14.4659C31.6328 14.4869 31.8441 14.4543 32.0856 14.3935C33.5514 14.0245 35.2066 14.0646 36.2033 14.4933C37.563 15.0782 38.0808 16.81 37.5103 18.8633C37.2754 19.709 36.6259 21.0314 36.4465 21.0295C36.0505 21.0252 33.4013 20.147 32.7263 19.7963C31.1864 18.9961 29.8409 17.3563 29.1299 15.4134C28.9721 14.9821 28.4349 13.1325 27.936 11.3028C26.6749 6.67671 26.5774 6.313 26.0033 4.09515C25.426 1.86501 25.2162 1.17177 25.1183 1.17177C25.0809 1.17177 24.8985 1.77278 24.7131 2.50745ZM27.6219 35.6629C26.7423 36.2071 24.3514 37.5157 22.4121 38.5141C22.4021 38.5193 22.547 39.0672 22.7342 39.7317C22.9215 40.3963 23.2393 41.5523 23.4404 42.3008C23.8239 43.728 24.5593 46.3707 24.9221 47.6259C25.0579 48.0956 25.1636 48.3145 25.2123 48.2273C25.2546 48.1519 25.432 47.5475 25.6067 46.8841C26.3598 44.0235 27.657 39.4126 28.6366 36.1133C28.9539 35.0451 28.9734 34.9409 28.8568 34.9437C28.8152 34.9447 28.2595 35.2683 27.6219 35.6629Z" fill="#FF8A22"/>
</g>
<defs>
<clipPath id="clip0_662_314">
<rect width="50" height="50" fill="white"/>
</clipPath>
</defs>
</svg>
