<svg width="12" height="12" viewBox="0 0 24 24" fill="none" xmlns="http://www.w3.org/2000/svg">
<g clip-path="url(#clip0_943_970)">
<path d="M3 9L3.42426 11.5757L6 12L3.42426 12.4243L3 15L2.57574 12.4243L0 12L2.57574 11.5757L3 9Z" fill="white"/>
<path d="M3 9.5L3.35355 11.6464L5.5 12L3.35355 12.3536L3 14.5L2.64645 12.3536L0.5 12L2.64645 11.6464L3 9.5Z" fill="white"/>
<path d="M3 10L3.28284 11.7172L5 12L3.28284 12.2828L3 14L2.71716 12.2828L1 12L2.71716 11.7172L3 10Z" fill="white"/>
<path d="M3 10.5L3.21213 11.7879L4.5 12L3.21213 12.2121L3 13.5L2.78787 12.2121L1.5 12L2.78787 11.7879L3 10.5Z" fill="white"/>
<path d="M21 12C21 16.9706 16.9706 21 12 21C7.02944 21 3 16.9706 3 12C3 7.02944 7.02944 3 12 3C16.9706 3 21 7.02944 21 12Z" stroke="white" stroke-opacity="0.4"/>
<path d="M21 9L21.4243 11.5757L24 12L21.4243 12.4243L21 15L20.5757 12.4243L18 12L20.5757 11.5757L21 9Z" fill="white"/>
<path d="M21 9.5L21.3536 11.6464L23.5 12L21.3536 12.3536L21 14.5L20.6464 12.3536L18.5 12L20.6464 11.6464L21 9.5Z" fill="white"/>
<path d="M21 10L21.2828 11.7172L23 12L21.2828 12.2828L21 14L20.7172 12.2828L19 12L20.7172 11.7172L21 10Z" fill="white"/>
<path d="M21 10.5L21.2121 11.7879L22.5 12L21.2121 12.2121L21 13.5L20.7879 12.2121L19.5 12L20.7879 11.7879L21 10.5Z" fill="white"/>
<path d="M20.3203 12.438L20.7446 15.0137L23.3203 15.438L20.7446 15.8623L20.3203 18.438L19.896 15.8623L17.3203 15.438L19.896 15.0137L20.3203 12.438Z" fill="white"/>
<path d="M20.3203 12.938L20.6739 15.0844L22.8203 15.438L20.6739 15.7915L20.3203 17.938L19.9668 15.7915L17.8203 15.438L19.9668 15.0844L20.3203 12.938Z" fill="white"/>
<path d="M20.3203 13.438L20.6032 15.1551L22.3203 15.438L20.6032 15.7208L20.3203 17.438L20.0375 15.7208L18.3203 15.438L20.0375 15.1551L20.3203 13.438Z" fill="white"/>
<path d="M20.3203 13.938L20.5324 15.2259L21.8203 15.438L20.5324 15.6501L20.3203 16.938L20.1082 15.6501L18.8203 15.438L20.1082 15.2259L20.3203 13.938Z" fill="white"/>
<path d="M18.3633 15.3638L18.7875 17.9395L21.3633 18.3638L18.7875 18.788L18.3633 21.3638L17.939 18.788L15.3633 18.3638L17.939 17.9395L18.3633 15.3638Z" fill="white"/>
<path d="M18.3633 15.8638L18.7168 18.0102L20.8633 18.3638L18.7168 18.7173L18.3633 20.8638L18.0097 18.7173L15.8633 18.3638L18.0097 18.0102L18.3633 15.8638Z" fill="white"/>
<path d="M18.3633 16.3638L18.6461 18.0809L20.3633 18.3638L18.6461 18.6466L18.3633 20.3638L18.0804 18.6466L16.3633 18.3638L18.0804 18.0809L18.3633 16.3638Z" fill="white"/>
<path d="M18.3633 16.8638L18.5754 18.1516L19.8633 18.3638L18.5754 18.5759L18.3633 19.8638L18.1511 18.5759L16.8633 18.3638L18.1511 18.1516L18.3633 16.8638Z" fill="white"/>
<path d="M15.5 17.2939L15.9243 19.8697L18.5 20.2939L15.9243 20.7182L15.5 23.2939L15.0757 20.7182L12.5 20.2939L15.0757 19.8697L15.5 17.2939Z" fill="white"/>
<path d="M15.5 17.7939L15.8536 19.9404L18 20.2939L15.8536 20.6475L15.5 22.7939L15.1464 20.6475L13 20.2939L15.1464 19.9404L15.5 17.7939Z" fill="white"/>
<path d="M15.5 18.2939L15.7828 20.0111L17.5 20.2939L15.7828 20.5768L15.5 22.2939L15.2172 20.5768L13.5 20.2939L15.2172 20.0111L15.5 18.2939Z" fill="white"/>
<path d="M15.5 18.7939L15.7121 20.0818L17 20.2939L15.7121 20.5061L15.5 21.7939L15.2879 20.5061L14 20.2939L15.2879 20.0818L15.5 18.7939Z" fill="white"/>
<path d="M11.9648 18L12.3891 20.5757L14.9648 21L12.3891 21.4243L11.9648 24L11.5406 21.4243L8.96484 21L11.5406 20.5757L11.9648 18Z" fill="white"/>
<path d="M11.9648 18.5L12.3184 20.6464L14.4648 21L12.3184 21.3536L11.9648 23.5L11.6113 21.3536L9.46484 21L11.6113 20.6464L11.9648 18.5Z" fill="white"/>
<path d="M11.9648 19L12.2477 20.7172L13.9648 21L12.2477 21.2828L11.9648 23L11.682 21.2828L9.96484 21L11.682 20.7172L11.9648 19Z" fill="white"/>
<path d="M11.9648 19.5L12.177 20.7879L13.4648 21L12.177 21.2121L11.9648 22.5L11.7527 21.2121L10.4648 21L11.7527 20.7879L11.9648 19.5Z" fill="white"/>
<path d="M8.5332 17.3076L8.95747 19.8834L11.5332 20.3076L8.95747 20.7319L8.5332 23.3076L8.10894 20.7319L5.5332 20.3076L8.10894 19.8834L8.5332 17.3076Z" fill="white"/>
<path d="M8.5332 17.8076L8.88676 19.9541L11.0332 20.3076L8.88676 20.6612L8.5332 22.8076L8.17965 20.6612L6.0332 20.3076L8.17965 19.9541L8.5332 17.8076Z" fill="white"/>
<path d="M8.5332 18.3076L8.81605 20.0248L10.5332 20.3076L8.81605 20.5905L8.5332 22.3076L8.25036 20.5905L6.5332 20.3076L8.25036 20.0248L8.5332 18.3076Z" fill="white"/>
<path d="M8.5332 18.8076L8.74534 20.0955L10.0332 20.3076L8.74534 20.5197L8.5332 21.8076L8.32107 20.5197L7.0332 20.3076L8.32107 20.0955L8.5332 18.8076Z" fill="white"/>
<path d="M5.61523 15.3423L6.0395 17.918L8.61523 18.3423L6.0395 18.7665L5.61523 21.3423L5.19097 18.7665L2.61523 18.3423L5.19097 17.918L5.61523 15.3423Z" fill="white"/>
<path d="M5.61523 15.8423L5.96879 17.9887L8.11523 18.3423L5.96879 18.6958L5.61523 20.8423L5.26168 18.6958L3.11523 18.3423L5.26168 17.9887L5.61523 15.8423Z" fill="white"/>
<path d="M5.61523 16.3423L5.89808 18.0594L7.61523 18.3423L5.89808 18.6251L5.61523 20.3423L5.33239 18.6251L3.61523 18.3423L5.33239 18.0594L5.61523 16.3423Z" fill="white"/>
<path d="M5.61523 16.8423L5.82737 18.1302L7.11523 18.3423L5.82737 18.5544L5.61523 19.8423L5.4031 18.5544L4.11523 18.3423L5.4031 18.1302L5.61523 16.8423Z" fill="white"/>
<path d="M3.69336 12.4707L4.11762 15.0464L6.69336 15.4707L4.11762 15.895L3.69336 18.4707L3.2691 15.895L0.693359 15.4707L3.2691 15.0464L3.69336 12.4707Z" fill="white"/>
<path d="M3.69336 12.9707L4.04691 15.1171L6.19336 15.4707L4.04691 15.8243L3.69336 17.9707L3.33981 15.8243L1.19336 15.4707L3.33981 15.1171L3.69336 12.9707Z" fill="white"/>
<path d="M3.69336 13.4707L3.9762 15.1879L5.69336 15.4707L3.9762 15.7535L3.69336 17.4707L3.41052 15.7535L1.69336 15.4707L3.41052 15.1879L3.69336 13.4707Z" fill="white"/>
<path d="M3.69336 13.9707L3.90549 15.2586L5.19336 15.4707L3.90549 15.6828L3.69336 16.9707L3.48123 15.6828L2.19336 15.4707L3.48123 15.2586L3.69336 13.9707Z" fill="white"/>
<path d="M3 8.9292L3.42426 11.5049L6 11.9292L3.42426 12.3535L3 14.9292L2.57574 12.3535L0 11.9292L2.57574 11.5049L3 8.9292Z" fill="white"/>
<path d="M3 9.4292L3.35355 11.5756L5.5 11.9292L3.35355 12.2828L3 14.4292L2.64645 12.2828L0.5 11.9292L2.64645 11.5756L3 9.4292Z" fill="white"/>
<path d="M3 9.9292L3.28284 11.6464L5 11.9292L3.28284 12.212L3 13.9292L2.71716 12.212L1 11.9292L2.71716 11.6464L3 9.9292Z" fill="white"/>
<path d="M3 10.4292L3.21213 11.7171L4.5 11.9292L3.21213 12.1413L3 13.4292L2.78787 12.1413L1.5 11.9292L2.78787 11.7171L3 10.4292Z" fill="white"/>
<path d="M3.70312 5.50391L4.12739 8.07964L6.70312 8.50391L4.12739 8.92817L3.70312 11.5039L3.27886 8.92817L0.703125 8.50391L3.27886 8.07964L3.70312 5.50391Z" fill="white"/>
<path d="M3.70312 6.00391L4.05668 8.15035L6.20312 8.50391L4.05668 8.85746L3.70312 11.0039L3.34957 8.85746L1.20312 8.50391L3.34957 8.15035L3.70312 6.00391Z" fill="white"/>
<path d="M3.70312 6.50391L3.98597 8.22106L5.70312 8.50391L3.98597 8.78675L3.70312 10.5039L3.42028 8.78675L1.70312 8.50391L3.42028 8.22106L3.70312 6.50391Z" fill="white"/>
<path d="M3.70312 7.00391L3.91526 8.29177L5.20312 8.50391L3.91526 8.71604L3.70312 10.0039L3.49099 8.71604L2.20312 8.50391L3.49099 8.29177L3.70312 7.00391Z" fill="white"/>
<path d="M5.67969 2.59326L6.10395 5.169L8.67969 5.59326L6.10395 6.01753L5.67969 8.59326L5.25542 6.01753L2.67969 5.59326L5.25542 5.169L5.67969 2.59326Z" fill="white"/>
<path d="M5.67969 3.09326L6.03324 5.23971L8.17969 5.59326L6.03324 5.94682L5.67969 8.09326L5.32613 5.94682L3.17969 5.59326L5.32613 5.23971L5.67969 3.09326Z" fill="white"/>
<path d="M5.67969 3.59326L5.96253 5.31042L7.67969 5.59326L5.96253 5.8761L5.67969 7.59326L5.39684 5.8761L3.67969 5.59326L5.39684 5.31042L5.67969 3.59326Z" fill="white"/>
<path d="M5.67969 4.09326L5.89182 5.38113L7.17969 5.59326L5.89182 5.80539L5.67969 7.09326L5.46756 5.80539L4.17969 5.59326L5.46756 5.38113L5.67969 4.09326Z" fill="white"/>
<path d="M8.61914 0.65625L9.0434 3.23199L11.6191 3.65625L9.0434 4.08051L8.61914 6.65625L8.19488 4.08051L5.61914 3.65625L8.19488 3.23199L8.61914 0.65625Z" fill="white"/>
<path d="M8.61914 1.15625L8.97269 3.3027L11.1191 3.65625L8.97269 4.0098L8.61914 6.15625L8.26559 4.0098L6.11914 3.65625L8.26559 3.3027L8.61914 1.15625Z" fill="white"/>
<path d="M8.61914 1.65625L8.90198 3.37341L10.6191 3.65625L8.90198 3.93909L8.61914 5.65625L8.3363 3.93909L6.61914 3.65625L8.3363 3.37341L8.61914 1.65625Z" fill="white"/>
<path d="M8.61914 2.15625L8.83127 3.44412L10.1191 3.65625L8.83127 3.86838L8.61914 5.15625L8.40701 3.86838L7.11914 3.65625L8.40701 3.44412L8.61914 2.15625Z" fill="white"/>
<path d="M12.1055 0.000488281L12.5297 2.57622L15.1055 3.00049L12.5297 3.42475L12.1055 6.00049L11.6812 3.42475L9.10547 3.00049L11.6812 2.57622L12.1055 0.000488281Z" fill="white"/>
<path d="M12.1055 0.500488L12.459 2.64693L14.6055 3.00049L12.459 3.35404L12.1055 5.50049L11.7519 3.35404L9.60547 3.00049L11.7519 2.64693L12.1055 0.500488Z" fill="white"/>
<path d="M12.1055 1.00049L12.3883 2.71765L14.1055 3.00049L12.3883 3.28333L12.1055 5.00049L11.8226 3.28333L10.1055 3.00049L11.8226 2.71765L12.1055 1.00049Z" fill="white"/>
<path d="M12.1055 1.50049L12.3176 2.78836L13.6055 3.00049L12.3176 3.21262L12.1055 4.50049L11.8933 3.21262L10.6055 3.00049L11.8933 2.78836L12.1055 1.50049Z" fill="white"/>
<path d="M15.5254 0.716309L15.9497 3.29204L18.5254 3.71631L15.9497 4.14057L15.5254 6.71631L15.1011 4.14057L12.5254 3.71631L15.1011 3.29204L15.5254 0.716309Z" fill="white"/>
<path d="M15.5254 1.21631L15.8789 3.36276L18.0254 3.71631L15.8789 4.06986L15.5254 6.21631L15.1718 4.06986L13.0254 3.71631L15.1718 3.36276L15.5254 1.21631Z" fill="white"/>
<path d="M15.5254 1.71631L15.8082 3.43347L17.5254 3.71631L15.8082 3.99915L15.5254 5.71631L15.2425 3.99915L13.5254 3.71631L15.2425 3.43347L15.5254 1.71631Z" fill="white"/>
<path d="M15.5254 2.21631L15.7375 3.50418L17.0254 3.71631L15.7375 3.92844L15.5254 5.21631L15.3133 3.92844L14.0254 3.71631L15.3133 3.50418L15.5254 2.21631Z" fill="white"/>
<path d="M18.4277 2.70068L18.852 5.27642L21.4277 5.70068L18.852 6.12495L18.4277 8.70068L18.0035 6.12495L15.4277 5.70068L18.0035 5.27642L18.4277 2.70068Z" fill="white"/>
<path d="M18.4277 3.20068L18.7813 5.34713L20.9277 5.70068L18.7813 6.05424L18.4277 8.20068L18.0742 6.05424L15.9277 5.70068L18.0742 5.34713L18.4277 3.20068Z" fill="white"/>
<path d="M18.4277 3.70068L18.7106 5.41784L20.4277 5.70068L18.7106 5.98353L18.4277 7.70068L18.1449 5.98353L16.4277 5.70068L18.1449 5.41784L18.4277 3.70068Z" fill="white"/>
<path d="M18.4277 4.20068L18.6399 5.48855L19.9277 5.70068L18.6399 5.91282L18.4277 7.20068L18.2156 5.91282L16.9277 5.70068L18.2156 5.48855L18.4277 4.20068Z" fill="white"/>
<path d="M20.3555 5.64893L20.7797 8.22466L23.3555 8.64893L20.7797 9.07319L20.3555 11.6489L19.9312 9.07319L17.3555 8.64893L19.9312 8.22466L20.3555 5.64893Z" fill="white"/>
<path d="M20.3555 6.14893L20.709 8.29537L22.8555 8.64893L20.709 9.00248L20.3555 11.1489L20.0019 9.00248L17.8555 8.64893L20.0019 8.29537L20.3555 6.14893Z" fill="white"/>
<path d="M20.3555 6.64893L20.6383 8.36608L22.3555 8.64893L20.6383 8.93177L20.3555 10.6489L20.0726 8.93177L18.3555 8.64893L20.0726 8.36608L20.3555 6.64893Z" fill="white"/>
<path d="M20.3555 7.14893L20.5676 8.43679L21.8555 8.64893L20.5676 8.86106L20.3555 10.1489L20.1433 8.86106L18.8555 8.64893L20.1433 8.43679L20.3555 7.14893Z" fill="white"/>
</g>
<defs>
<clipPath id="clip0_943_970">
<rect width="24" height="24" fill="white"/>
</clipPath>
</defs>
</svg>
