<svg width="64" height="64" viewBox="0 0 64 64" fill="none" xmlns="http://www.w3.org/2000/svg">
<g clip-path="url(#clip0_708_4270)">
<rect width="64" height="64" fill="#121212"/>
<g clip-path="url(#clip1_708_4270)">
<rect width="64" height="64" rx="32" fill="white"/>
<path fill-rule="evenodd" clip-rule="evenodd" d="M28.7108 0.465809C19.5241 1.50633 11.5743 6.17252 6.15413 13.7057C4.34355 16.2221 2.72704 19.4576 1.65813 22.7041L1.1531 24.2381C1.1531 24.2381 0.128906 27.5142 0.128906 31.9227C0.128906 36.3312 1.22923 40.1378 1.22923 40.1378L1.89633 41.9443C3.49207 46.265 4.50794 48.189 6.80123 51.2346C11.2005 57.0768 17.206 60.9609 24.6506 62.7788C27.6495 63.5111 28.6692 63.6219 32.3882 63.6191C36.0025 63.6164 36.7772 63.527 39.8076 62.7622C48.6837 60.5218 55.6047 55.2166 60.0165 47.2715C61.8365 43.9937 63.3032 39.2563 63.7429 35.2346C63.9116 33.6933 63.9064 30.0506 63.7335 28.4876C63.1906 23.5823 61.4585 18.815 58.7116 14.6661C53.6008 6.94723 46.0197 2.04568 37.0334 0.650326C35.4407 0.402971 30.2762 0.288519 28.7108 0.465809ZM31.7616 3.58942C31.5243 4.52981 31.2236 5.64749 31.0934 6.07329C30.9633 6.4991 30.5269 8.12491 30.1238 9.6862C28.9695 14.1577 27.8963 18.0942 27.4681 19.4281C26.2836 23.1179 24.2137 25.3125 20.8398 26.456C20.485 26.5763 17.7559 27.3117 14.7753 28.0905C7.08265 30.1003 2.14574 31.4379 2.03413 31.5428C1.87994 31.6877 8.618 33.5932 16.5172 35.6383C19.1544 36.3212 21.7899 37.1566 22.4159 37.5083C24.4167 38.632 25.6416 39.9336 26.5909 41.9443C27.4025 43.6632 27.4203 43.577 26.17 43.9875C24.6048 44.5013 23.4717 44.7165 21.8664 44.8048C18.8309 44.9719 17.1096 44.2655 16.1531 42.4604C15.8539 41.8957 15.8136 41.6783 15.8308 40.7185C15.8415 40.1152 15.8697 39.4854 15.8935 39.3188C15.9332 39.0394 15.8134 38.9721 14.3399 38.4479C13.4619 38.1354 12.7046 37.8797 12.6571 37.8797C12.523 37.8797 11.1545 40.5528 10.7892 41.5283C9.63452 44.6115 9.92394 47.2739 11.5709 48.72C13.883 50.7501 19.1052 50.247 25.9256 47.3372C30.3632 45.4439 36.7768 41.6524 39.7848 39.1443C41.0714 38.0714 42.3834 37.2785 43.4534 36.9271C44.3797 36.623 45.5719 36.2858 49.2269 35.2943C57.1147 33.1546 57.965 32.9182 61.3519 31.9227C62.2154 31.6689 62.2384 31.6519 61.9326 31.4929C61.6527 31.3475 58.0812 30.339 53.9137 29.2286C51.2957 28.531 50.314 28.1951 50.4186 28.0326C50.4728 27.9485 50.8863 27.3281 51.3372 26.6539C53.485 23.4436 54.6042 20.241 54.4163 17.8436C54.2607 15.8568 53.2732 14.6764 51.2269 14.0308C50.275 13.7306 48.5997 13.616 47.2237 13.7572C44.7519 14.0108 39.7663 15.4925 39.8353 15.9529C39.877 16.2307 40.5527 18.84 40.5975 18.8963C40.6189 18.9231 40.8894 18.8814 41.1985 18.8036C43.0746 18.3312 45.1934 18.3826 46.4691 18.9314C48.2095 19.68 48.8723 21.8966 48.1421 24.5249C47.8414 25.6074 47.01 27.3001 46.7805 27.2977C46.2735 27.2921 42.8825 26.168 42.0185 25.7191C40.0476 24.6948 38.3252 22.596 37.4152 20.109C37.2132 19.557 36.5256 17.1894 35.887 14.8475C34.2727 8.92607 34.1479 8.46052 33.4131 5.62168C32.6741 2.7671 32.4056 1.87974 32.2803 1.87974C32.2325 1.87974 31.999 2.64903 31.7616 3.58942ZM35.485 46.0284C34.359 46.725 31.2986 48.4 28.8165 49.6779C28.8036 49.6846 28.9891 50.3859 29.2287 51.2365C29.4685 52.0871 29.8752 53.5668 30.1326 54.5249C30.6236 56.3517 31.5648 59.7343 32.0292 61.341C32.203 61.9422 32.3383 62.2225 32.4007 62.1108C32.4548 62.0143 32.6819 61.2406 32.9055 60.3915C33.8695 56.7299 35.5299 50.828 36.7838 46.6049C37.1899 45.2375 37.2149 45.1043 37.0656 45.1079C37.0123 45.1092 36.3011 45.5234 35.485 46.0284Z" fill="#121212"/>
<g clip-path="url(#clip2_708_4270)">
<rect x="9.12891" y="9.37988" width="12" height="13.3333" rx="6" fill="white"/>
<path fill-rule="evenodd" clip-rule="evenodd" d="M4.15944 5.07175C1.11978 5.31248 -1.56212 6.01248 -4.14044 7.23811C-5.94972 8.09821 -8.09462 9.49353 -9.14884 10.4961L-9.55281 10.8803L-8.60753 11.1626C-5.15781 12.1929 -2.05609 13.7835 2.00319 16.6038C4.27606 18.1831 7.52375 20.7782 8.84544 22.0713C9.119 22.3389 9.14638 22.4018 9.01419 22.4581C8.90853 22.5032 8.21178 22.0952 6.90613 21.2237C4.78841 19.8102 1.98369 18.1661 0.643814 17.553C-0.578968 16.9934 -2.48809 16.2835 -3.62181 15.9668C-4.41784 15.7444 -4.83044 15.691 -5.77806 15.688C-6.86744 15.6846 -6.98294 15.7036 -7.41869 15.9595C-7.96028 16.2775 -8.119 16.4566 -8.3905 17.0568C-9.35031 19.1784 -7.72347 24.1069 -4.33919 29.3301C-0.403467 35.4044 5.79425 41.3748 11.3824 44.4752C13.9138 45.8796 15.6177 46.4281 17.1756 46.34C18.6116 46.2587 19.3338 45.6363 19.5462 44.2971C19.8264 42.5292 18.6056 38.9178 16.5994 35.5801C16.0456 34.6587 16.0307 34.6148 15.7337 33.028C15.5675 32.14 15.365 31.1341 15.2837 30.7929C15.2023 30.4515 15.1476 30.1593 15.1619 30.1432C15.2012 30.0997 17.6747 33.3121 18.7467 34.7988C21.6628 38.8436 23.0044 41.2427 24.5572 45.1895C24.8107 45.834 25.05 46.3613 25.089 46.3613C25.2125 46.3613 25.9924 45.1133 26.4434 44.1939C26.9764 43.1075 27.6259 41.4868 27.9775 40.3659C28.5292 38.607 29.1666 35.391 29.2666 33.8613L29.3313 32.8718L29.383 34.0697C29.4113 34.7285 29.4349 33.6973 29.4353 31.778C29.4358 29.8587 29.4125 28.7337 29.3837 29.278L29.3313 30.2676L29.267 29.3787C29.1291 27.4726 28.3827 24.1315 27.6372 22.0834C26.8106 19.8126 25.8845 17.989 24.5463 15.9968C23.8229 14.9198 22.389 13.0668 22.0045 12.712C21.9092 12.6242 21.536 12.2527 21.1751 11.8867C19.5583 10.247 16.9426 8.33602 14.9876 7.36623C13.081 6.4205 10.5878 5.62446 8.42506 5.27071C7.38941 5.10134 5.12159 4.99561 4.15944 5.07175ZM14.9164 11.6501C14.729 12.6084 14.508 13.7521 14.4253 14.1914C14.3427 14.6308 14.2185 15.0425 14.1494 15.1061C13.96 15.2808 12.8986 15.4988 11.3313 15.6849C10.5579 15.7768 9.65084 15.8849 9.31569 15.9252L8.70631 15.9985L9.64381 16.2337C10.1594 16.3631 11.1298 16.5878 11.8001 16.733C14.4003 17.2964 14.119 17.184 14.26 17.7156C14.3283 17.9734 14.5303 19.0749 14.709 20.1634C15.0764 22.4028 15.1369 22.7063 15.1862 22.5593C15.2054 22.502 15.406 21.4473 15.6319 20.2155C15.8577 18.9837 16.1068 17.8056 16.1854 17.5976C16.3272 17.2219 16.3338 17.2183 17.111 17.1027C17.5415 17.0387 18.4844 16.9161 19.2063 16.8304C21.217 16.5914 21.5052 16.5461 21.552 16.462C21.5913 16.3913 20.7156 16.1909 17.4453 15.5218C16.3853 15.3049 16.3345 15.2826 16.1874 14.9692C16.1031 14.7896 15.8758 13.5956 15.6823 12.3158C15.4889 11.0361 15.3142 9.97071 15.2939 9.94832C15.2738 9.92582 15.1039 10.6917 14.9164 11.6501ZM-15.0026 17.5332C-16.5385 20.1648 -17.6958 23.3318 -18.2995 26.5548C-18.5174 27.7185 -18.5266 27.9336 -18.5273 31.8749C-18.5282 36.4912 -18.5184 36.5798 -17.6764 39.5994C-15.8639 46.1006 -11.4834 51.8734 -5.76184 55.3013C-3.82759 56.4601 -0.97703 57.5305 1.48138 58.0211C1.80781 58.0863 3.43438 58.132 5.41887 58.1318L8.80006 58.1313L10.1747 57.7745C12.5987 57.1451 14.1298 56.5537 15.9251 55.5534C16.9808 54.9651 18.3874 54.0238 18.6723 53.715L18.8883 53.4808L18.5317 53.208C18.3356 53.058 17.7975 52.8144 17.3361 52.6665C11.1616 50.6884 4.08331 45.6174 -2.22466 38.653C-5.18369 35.3861 -6.81475 33.3006 -8.7745 30.2787C-11.7498 25.6907 -13.9274 20.5286 -14.2755 17.2381C-14.3083 16.9277 -14.3724 16.6738 -14.4181 16.6738C-14.4637 16.6738 -14.7267 17.0606 -15.0026 17.5332ZM22.6751 28.2231C21.8787 28.454 21.0881 29.1887 20.7764 29.9874C20.5488 30.5707 20.5672 31.818 20.8122 32.4103C21.0557 32.9994 21.5671 33.5626 22.1433 33.876C22.8094 34.2384 23.81 34.2186 24.5242 33.8289C25.4948 33.2994 26.0032 32.3609 26.0032 31.099C26.0032 29.8875 25.2193 28.6722 24.2219 28.3372C23.7606 28.1823 23.0075 28.1266 22.6751 28.2231ZM-10.7235 39.909C-12.5077 40.3 -13.8483 42.322 -13.7262 44.4376C-13.5825 46.9256 -11.4483 48.7815 -9.21953 48.3569C-8.36322 48.1937 -7.84291 47.9032 -7.16791 47.2112C-6.36925 46.3925 -6.03072 45.5721 -5.98356 44.3407C-5.95178 43.5112 -5.97803 43.3021 -6.19328 42.6696C-6.58825 41.5091 -7.09187 40.8668 -8.02806 40.3293C-8.87575 39.8426 -9.77837 39.7019 -10.7235 39.909Z" fill="#121212"/>
</g>
<g clip-path="url(#clip3_708_4270)">
<rect x="47.1289" y="39.3799" width="6" height="7" rx="3" fill="white"/>
<path fill-rule="evenodd" clip-rule="evenodd" d="M44.6442 37.1182C43.1243 37.2446 41.7834 37.6121 40.4942 38.2555C39.5896 38.7071 38.5171 39.4396 37.99 39.966L37.788 40.1677L38.2607 40.3159C39.9855 40.8568 41.5364 41.6919 43.566 43.1725C44.7025 44.0016 46.3263 45.3641 46.9872 46.043C47.124 46.1834 47.1376 46.2164 47.0715 46.246C47.0187 46.2697 46.6703 46.0555 46.0175 45.598C44.9587 44.8559 43.5563 43.9927 42.8864 43.6708C42.275 43.377 41.3204 43.0043 40.7535 42.838C40.3555 42.7213 40.1492 42.6933 39.6754 42.6917C39.1307 42.6899 39.073 42.6999 38.8551 42.8342C38.5843 43.0012 38.505 43.0952 38.3692 43.4103C37.8893 44.5242 38.7027 47.1116 40.3949 49.8538C42.3627 53.0428 45.4616 56.1773 48.2557 57.805C49.5213 58.5423 50.3733 58.8303 51.1523 58.784C51.8702 58.7413 52.2314 58.4146 52.3375 57.7115C52.4776 56.7833 51.8672 54.8873 50.8642 53.135C50.5873 52.6513 50.5798 52.6283 50.4313 51.7952C50.3482 51.329 50.247 50.8009 50.2063 50.6218C50.1656 50.4426 50.1383 50.2891 50.1454 50.2807C50.1651 50.2578 51.4018 51.9443 51.9378 52.7249C53.3959 54.8484 54.0667 56.1079 54.843 58.18C54.9698 58.5184 55.0895 58.7952 55.109 58.7952C55.1707 58.7952 55.5607 58.14 55.7862 57.6573C56.0527 57.0869 56.3774 56.236 56.5532 55.6476C56.829 54.7242 57.1478 53.0358 57.1978 52.2327L57.2301 51.7132L57.2559 52.3421C57.2701 52.688 57.2819 52.1466 57.2821 51.139C57.2823 50.1313 57.2707 49.5407 57.2563 49.8265L57.2301 50.346L57.198 49.8793C57.129 48.8786 56.7558 47.1246 56.383 46.0493C55.9697 44.8571 55.5067 43.8997 54.8376 42.8538C54.4759 42.2884 53.759 41.3155 53.5667 41.1293C53.5191 41.0832 53.3325 40.8882 53.152 40.696C52.3436 39.8352 51.0358 38.8319 50.0582 38.3228C49.1049 37.8263 47.8583 37.4083 46.777 37.2226C46.2592 37.1337 45.1253 37.0782 44.6442 37.1182ZM50.0227 40.5718C49.929 41.0749 49.8185 41.6753 49.7771 41.906C49.7358 42.1367 49.6737 42.3528 49.6392 42.3862C49.5444 42.4779 49.0138 42.5924 48.2301 42.6901C47.8434 42.7383 47.3899 42.7951 47.2223 42.8162L46.9176 42.8547L47.3864 42.9782C47.6442 43.0461 48.1293 43.1641 48.4645 43.2403C49.7646 43.5361 49.6239 43.4771 49.6944 43.7562C49.7286 43.8915 49.8296 44.4698 49.919 45.0413C50.1027 46.217 50.1329 46.3763 50.1576 46.2991C50.1672 46.269 50.2674 45.7153 50.3804 45.0686C50.4933 44.422 50.6179 43.8034 50.6572 43.6942C50.728 43.497 50.7314 43.4951 51.12 43.4344C51.3352 43.4008 51.8067 43.3365 52.1676 43.2915C53.1729 43.166 53.317 43.1422 53.3405 43.098C53.3601 43.061 52.9223 42.9557 51.2871 42.6044C50.7571 42.4906 50.7317 42.4789 50.6581 42.3143C50.616 42.22 50.5024 41.5932 50.4056 40.9213C50.3089 40.2495 50.2215 39.6901 50.2114 39.6784C50.2013 39.6666 50.1164 40.0686 50.0227 40.5718ZM35.0632 43.6604C34.2952 45.042 33.7165 46.7047 33.4147 48.3968C33.3058 49.0077 33.3012 49.1207 33.3008 51.1898C33.3004 53.6134 33.3053 53.6599 33.7262 55.2452C34.6325 58.6583 36.8228 61.689 39.6835 63.4887C40.6507 64.097 42.0759 64.659 43.3051 64.9166C43.4684 64.9508 44.2816 64.9748 45.2739 64.9747L46.9645 64.9745L47.6518 64.7871C48.8638 64.4567 49.6294 64.1462 50.527 63.621C51.0548 63.3122 51.7582 62.818 51.9006 62.6559L52.0086 62.5329L51.8303 62.3897C51.7322 62.311 51.4632 62.183 51.2325 62.1054C48.1453 61.0669 44.6061 58.4046 41.4521 54.7483C39.9726 53.0332 39.1571 51.9383 38.1772 50.3518C36.6895 47.9431 35.6008 45.233 35.4267 43.5055C35.4103 43.3425 35.3783 43.2093 35.3554 43.2093C35.3326 43.2093 35.2011 43.4123 35.0632 43.6604ZM53.902 49.2726C53.5038 49.3939 53.1085 49.7796 52.9527 50.1989C52.8389 50.5051 52.848 51.16 52.9705 51.4709C53.0923 51.7802 53.348 52.0759 53.6361 52.2404C53.9692 52.4307 54.4695 52.4203 54.8265 52.2157C55.3118 51.9377 55.566 51.445 55.566 50.7825C55.566 50.1464 55.1741 49.5084 54.6754 49.3325C54.4448 49.2512 54.0682 49.222 53.902 49.2726ZM37.2027 55.4077C36.3106 55.613 35.6403 56.6745 35.7014 57.7852C35.7732 59.0914 36.8403 60.0658 37.9547 59.8428C38.3828 59.7572 38.643 59.6047 38.9805 59.2414C39.3798 58.8116 39.5491 58.3808 39.5727 57.7344C39.5886 57.2989 39.5754 57.1891 39.4678 56.857C39.2703 56.2478 39.0185 55.9105 38.5504 55.6284C38.1266 55.3729 37.6753 55.299 37.2027 55.4077Z" fill="#121212"/>
</g>
<g clip-path="url(#clip4_708_4270)">
<rect x="41.1289" y="47.3799" width="8" height="9" rx="4" fill="white"/>
<path fill-rule="evenodd" clip-rule="evenodd" d="M37.8159 44.4718C35.7895 44.6343 34.0016 45.1068 32.2827 45.9341C31.0765 46.5147 29.6466 47.4565 28.9437 48.1332L28.6744 48.3926L29.3046 48.5831C31.6044 49.2786 33.6722 50.3522 36.3784 52.2559C37.8937 53.322 40.0588 55.0737 40.9399 55.9465C41.1223 56.1271 41.1406 56.1695 41.0524 56.2076C40.982 56.238 40.5175 55.9626 39.6471 55.3744C38.2352 54.4202 36.3654 53.3105 35.4722 52.8966C34.657 52.5189 33.3842 52.0397 32.6284 51.8259C32.0977 51.6758 31.8227 51.6398 31.1909 51.6378C30.4647 51.6354 30.3877 51.6483 30.0972 51.821C29.7361 52.0357 29.6303 52.1566 29.4493 52.5617C28.8094 53.9938 29.894 57.3205 32.1502 60.8462C34.774 64.9463 38.9058 68.9763 42.6312 71.0691C44.3188 72.0171 45.4548 72.3873 46.4934 72.3278C47.4507 72.273 47.9322 71.8529 48.0737 70.9489C48.2606 69.7555 47.4467 67.3179 46.1092 65.0649C45.7401 64.443 45.7301 64.4133 45.5321 63.3423C45.4213 62.7428 45.2863 62.0639 45.2321 61.8336C45.1779 61.6032 45.1414 61.4059 45.1509 61.395C45.1771 61.3656 46.8261 63.534 47.5407 64.5376C49.4849 67.2678 50.3792 68.8872 51.4144 71.5512C51.5834 71.9863 51.743 72.3423 51.769 72.3423C51.8513 72.3423 52.3712 71.4998 52.6719 70.8793C53.0272 70.1459 53.4602 69.0519 53.6946 68.2954C54.0624 67.1081 54.4874 64.9373 54.5541 63.9048L54.5972 63.2368L54.6316 64.0454C54.6505 64.4901 54.6662 63.794 54.6665 62.4985C54.6668 61.203 54.6513 60.4436 54.6321 60.811L54.5972 61.479L54.5543 60.879C54.4624 59.5924 53.9647 57.3372 53.4677 55.9547C52.9167 54.4219 52.2993 53.191 51.4072 51.8462C50.9249 51.1192 49.969 49.8684 49.7126 49.6289C49.6491 49.5697 49.4003 49.3189 49.1597 49.0718C48.0819 47.9651 46.3381 46.6752 45.0347 46.0206C43.7636 45.3822 42.1015 44.8449 40.6597 44.6061C39.9692 44.4918 38.4574 44.4204 37.8159 44.4718ZM44.9872 48.9122C44.8623 49.559 44.715 50.331 44.6599 50.6276C44.6047 50.9242 44.522 51.202 44.4759 51.245C44.3496 51.3629 43.6421 51.5101 42.5972 51.6357C42.0816 51.6977 41.4769 51.7707 41.2534 51.7979L40.8472 51.8474L41.4722 52.0061C41.8159 52.0935 42.4628 52.2451 42.9097 52.3431C44.6432 52.7235 44.4556 52.6476 44.5496 53.0064C44.5952 53.1804 44.7299 53.9239 44.849 54.6587C45.0939 56.1702 45.1342 56.3751 45.1671 56.2759C45.1799 56.2372 45.3136 55.5253 45.4642 54.6938C45.6148 53.8624 45.7809 53.0671 45.8332 52.9267C45.9277 52.6731 45.9322 52.6707 46.4503 52.5927C46.7373 52.5495 47.3659 52.4667 47.8472 52.4089C49.1876 52.2476 49.3797 52.217 49.411 52.1602C49.4372 52.1125 48.8534 51.9772 46.6732 51.5255C45.9665 51.3792 45.9326 51.3641 45.8346 51.1525C45.7784 51.0313 45.6269 50.2254 45.4979 49.3615C45.3689 48.4977 45.2524 47.7786 45.2389 47.7635C45.2255 47.7483 45.1122 48.2652 44.9872 48.9122ZM25.0412 52.8833C24.0173 54.6596 23.2457 56.7973 22.8433 58.9728C22.6981 59.7584 22.6919 59.9036 22.6914 62.5639C22.6909 65.6799 22.6974 65.7397 23.2587 67.7779C24.4671 72.1663 27.3874 76.0629 31.2017 78.3768C32.4912 79.1589 34.3916 79.8814 36.0306 80.2126C36.2482 80.2566 37.3326 80.2874 38.6556 80.2873L40.9097 80.287L41.8261 80.0461C43.4421 79.6213 44.4629 79.2221 45.6597 78.5469C46.3635 78.1498 47.3012 77.5145 47.4912 77.306L47.6352 77.1479L47.3974 76.9638C47.2667 76.8625 46.908 76.6981 46.6004 76.5983C42.4841 75.263 37.7652 71.8401 33.5599 67.1391C31.5872 64.934 30.4998 63.5263 29.1933 61.4865C27.2097 58.3896 25.7581 54.9052 25.526 52.6841C25.5041 52.4746 25.4614 52.3032 25.4309 52.3032C25.4005 52.3032 25.2252 52.5643 25.0412 52.8833ZM50.1597 60.099C49.6287 60.2548 49.1017 60.7508 48.8939 61.2898C48.7422 61.6836 48.7544 62.5255 48.9177 62.9253C49.0801 63.3229 49.4211 63.7031 49.8052 63.9147C50.2492 64.1593 50.9163 64.1459 51.3924 63.8829C52.0395 63.5254 52.3784 62.892 52.3784 62.0402C52.3784 61.2224 51.8559 60.4021 51.1909 60.1759C50.8834 60.0714 50.3813 60.0338 50.1597 60.099ZM27.894 67.987C26.7045 68.2508 25.8107 69.6157 25.8922 71.0437C25.988 72.7231 27.4107 73.9759 28.8966 73.6892C29.4675 73.5791 29.8144 73.383 30.2644 72.9159C30.7968 72.3633 31.0225 71.8095 31.0539 70.9783C31.0751 70.4184 31.0576 70.2773 30.9141 69.8503C30.6508 69.067 30.3151 68.6334 29.6909 68.2706C29.1258 67.9421 28.5241 67.8471 27.894 67.987Z" fill="#121212"/>
</g>
</g>
</g>
<defs>
<clipPath id="clip0_708_4270">
<rect width="64" height="64" fill="white"/>
</clipPath>
<clipPath id="clip1_708_4270">
<rect width="64" height="64" rx="32" fill="white"/>
</clipPath>
<clipPath id="clip2_708_4270">
<rect x="9.12891" y="9.37988" width="12" height="13.3333" rx="6" fill="white"/>
</clipPath>
<clipPath id="clip3_708_4270">
<rect x="47.1289" y="39.3799" width="6" height="7" rx="3" fill="white"/>
</clipPath>
<clipPath id="clip4_708_4270">
<rect x="41.1289" y="47.3799" width="8" height="9" rx="4" fill="white"/>
</clipPath>
</defs>
</svg>
