<svg width="37" height="37" viewBox="0 0 37 37" fill="none" xmlns="http://www.w3.org/2000/svg">
<path d="M2.32462 15.7089C2.14086 15.5249 2.03765 15.2754 2.03765 15.0154C2.03765 14.7553 2.14086 14.5059 2.32462 14.3219L6.95244 9.69372C6.96619 9.67419 6.98444 9.65826 7.00564 9.64726C7.02684 9.63626 7.05038 9.63052 7.07426 9.63052C7.09815 9.63052 7.12168 9.63626 7.14288 9.64726C7.16409 9.65826 7.18233 9.67419 7.19609 9.69372L12.2832 14.7809C12.3958 14.8872 12.5447 14.9464 12.6995 14.9464C12.8543 14.9464 13.0033 14.8872 13.1158 14.7809L18.1964 9.69299C18.2102 9.67361 18.2284 9.65782 18.2496 9.64692C18.2707 9.63602 18.2941 9.63033 18.3179 9.63033C18.3417 9.63033 18.3651 9.63602 18.3862 9.64692C18.4074 9.65782 18.4256 9.67361 18.4393 9.69299L23.5272 14.7809C23.6398 14.8872 23.7887 14.9464 23.9435 14.9464C24.0983 14.9464 24.2473 14.8872 24.3598 14.7809L29.4401 9.69372C29.4533 9.67357 29.4713 9.65702 29.4925 9.64554C29.5137 9.63405 29.5374 9.62801 29.5615 9.62793C29.5856 9.62786 29.6093 9.63376 29.6306 9.64511C29.6519 9.65645 29.67 9.6729 29.6833 9.69296L34.3165 14.3265C34.4075 14.4176 34.4798 14.5257 34.5291 14.6447C34.5783 14.7637 34.6037 14.8912 34.6037 15.02C34.6037 15.1488 34.5783 15.2763 34.529 15.3953C34.4798 15.5142 34.4075 15.6224 34.3165 15.7134C34.2254 15.8045 34.1173 15.8767 33.9983 15.926C33.8793 15.9753 33.7518 16.0006 33.623 16.0006C33.4942 16.0006 33.3667 15.9753 33.2477 15.926C33.1287 15.8767 33.0206 15.8045 32.9296 15.7134L29.9791 12.7634C29.8687 12.653 29.7191 12.591 29.563 12.591H29.5626C29.4066 12.591 29.2569 12.653 29.1466 12.7634L24.0613 17.8559C24.0303 17.8866 23.9883 17.9039 23.9446 17.9039C23.901 17.9039 23.859 17.8866 23.828 17.8559L18.7351 12.7634C18.6247 12.653 18.4751 12.591 18.319 12.591H18.3187C18.1626 12.591 18.0129 12.653 17.9026 12.7634L12.8173 17.8559C12.7863 17.8866 12.7443 17.9039 12.7007 17.9039C12.657 17.9039 12.615 17.8866 12.584 17.8559L7.49031 12.7626C7.43568 12.7079 7.37082 12.6646 7.29943 12.635C7.22804 12.6054 7.15152 12.5902 7.07424 12.5902C6.99696 12.5902 6.92044 12.6054 6.84905 12.635C6.77766 12.6646 6.7128 12.7079 6.65817 12.7626L3.71154 15.7089C3.5272 15.892 3.27792 15.9948 3.01808 15.9948C2.75824 15.9948 2.50895 15.892 2.32462 15.7089V15.7089ZM29.6688 18.5746C29.6549 18.5605 29.6384 18.5492 29.6201 18.5416C29.6018 18.534 29.5821 18.5301 29.5623 18.5302C29.5423 18.53 29.5224 18.5339 29.5039 18.5415C29.4855 18.5491 29.4687 18.5604 29.4546 18.5746L24.3598 23.6771C24.2494 23.7875 24.0998 23.8495 23.9437 23.8495H23.9433C23.7873 23.8495 23.6376 23.7875 23.5272 23.6771L18.4248 18.5746C18.4109 18.5605 18.3944 18.5492 18.3761 18.5416C18.3578 18.534 18.3381 18.5301 18.3183 18.5302C18.2983 18.53 18.2784 18.5339 18.2599 18.5415C18.2414 18.5491 18.2246 18.5604 18.2106 18.5746L13.1158 23.6771C13.0054 23.7875 12.8558 23.8495 12.6997 23.8495H12.6993C12.5433 23.8495 12.3936 23.7875 12.2832 23.6771L7.18115 18.5746C7.15093 18.5501 7.11319 18.5367 7.07426 18.5367C7.03534 18.5367 6.99759 18.5501 6.96737 18.5746L2.32462 23.2174C2.1406 23.4013 2.03718 23.6508 2.03711 23.911C2.03704 24.1711 2.14032 24.4207 2.32424 24.6047C2.50816 24.7887 2.75764 24.8921 3.01781 24.8922C3.27798 24.8923 3.52752 24.789 3.71154 24.6051L6.65817 21.6588C6.7128 21.6042 6.77767 21.5608 6.84906 21.5312C6.92045 21.5017 6.99697 21.4864 7.07424 21.4864C7.15151 21.4864 7.22803 21.5017 7.29942 21.5312C7.37081 21.5608 7.43567 21.6042 7.49031 21.6588L12.5764 26.7444C12.6095 26.7771 12.6541 26.7953 12.7006 26.7952C12.7471 26.7951 12.7917 26.7765 12.8246 26.7437L17.9026 21.6596C17.9572 21.6049 18.0221 21.5615 18.0936 21.532C18.165 21.5024 18.2415 21.4872 18.3188 21.4872C18.3961 21.4872 18.4727 21.5024 18.5441 21.532C18.6155 21.5615 18.6804 21.6049 18.7351 21.6596L23.82 26.7444C23.8531 26.7771 23.8979 26.7953 23.9444 26.7952C23.991 26.795 24.0356 26.7765 24.0686 26.7437L29.1466 21.6596C29.257 21.5492 29.4066 21.4872 29.5627 21.4871H29.563C29.7191 21.4872 29.8688 21.5492 29.9792 21.6596L32.9296 24.6097C33.1136 24.7936 33.3631 24.8969 33.6233 24.8968C33.8835 24.8967 34.133 24.7933 34.3169 24.6093C34.5008 24.4252 34.6041 24.1757 34.604 23.9155C34.6039 23.6553 34.5005 23.4059 34.3165 23.2219L29.6688 18.5746Z" fill="white" />
</svg>
