<svg width="37" height="37" viewBox="0 0 37 37" fill="none" xmlns="http://www.w3.org/2000/svg">
<path d="M10.2276 7.37771C14.3492 7.37771 17.7022 11.8761 17.7022 17.4053V30.9763C17.7029 31.2368 17.807 31.4865 17.9915 31.6705C18.176 31.8545 18.4259 31.9578 18.6865 31.9578C18.9471 31.9578 19.197 31.8545 19.3815 31.6705C19.566 31.4865 19.67 31.2368 19.6708 30.9763V17.4053C19.6708 11.8761 23.0238 7.37771 27.1454 7.37771C28.4009 7.41503 29.6206 7.80497 30.6649 8.50291C31.7092 9.20085 32.5359 10.1786 33.0506 11.3244C33.1141 11.4994 33.2241 11.6539 33.3687 11.7711C33.5133 11.8884 33.6872 11.964 33.8716 11.99C34.0559 12.0159 34.2439 11.9911 34.4153 11.9183C34.5866 11.8455 34.7349 11.7273 34.8442 11.5766C34.9313 11.4545 34.9889 11.3139 35.0126 11.1659C35.0364 11.0178 35.0256 10.8663 34.9811 10.7231C33.9157 7.27159 30.1486 5.40918 27.1454 5.40918C23.9362 5.40918 20.9707 7.47383 19.2128 10.9318C19.1581 11.0225 19.0809 11.0974 18.9887 11.1495C18.8965 11.2015 18.7924 11.2289 18.6865 11.2289C18.5806 11.2289 18.4765 11.2015 18.3843 11.1495C18.2921 11.0974 18.2149 11.0225 18.1601 10.9318C16.4023 7.47383 13.4368 5.40918 10.2276 5.40918C7.2244 5.40918 3.45727 7.27159 2.39225 10.7231C2.34842 10.8674 2.33821 11.0199 2.36241 11.1688C2.38661 11.3177 2.44458 11.4591 2.53187 11.5821C2.61916 11.7051 2.73346 11.8065 2.86601 11.8786C2.99856 11.9506 3.14584 11.9913 3.29656 11.9976C3.51814 12.0156 3.7394 11.9591 3.92523 11.8371C4.11106 11.7151 4.25083 11.5345 4.32235 11.324C4.83713 10.1783 5.66393 9.20067 6.70822 8.5028C7.75251 7.80493 8.97211 7.41504 10.2276 7.37771V7.37771Z" fill="white" />
</svg>
