<svg width="37" height="37" viewBox="0 0 37 37" fill="none" xmlns="http://www.w3.org/2000/svg">
<path d="M8.19464 22.1273C9.83031 22.1245 11.3981 21.4729 12.5539 20.3156C13.7098 19.1583 14.3594 17.5898 14.3602 15.9541C14.3638 14.919 14.1045 13.9 13.6066 12.9924C13.1088 12.0849 12.3887 11.3187 11.5138 10.7655C11.4188 10.7053 11.3432 10.619 11.2961 10.5169C11.249 10.4148 11.2323 10.3012 11.2481 10.1899C11.2639 10.0786 11.3115 9.97414 11.3851 9.88917C11.4588 9.80421 11.5554 9.74229 11.6634 9.71087C14.8173 8.82423 18.1024 8.49756 21.3692 8.74572C25.4015 9.07639 29.3272 10.2084 32.9164 12.0755C33.084 12.1694 33.2756 12.2117 33.4671 12.1971C33.6587 12.1826 33.8417 12.1118 33.9932 11.9938C34.1448 11.8757 34.2581 11.7155 34.319 11.5333C34.3799 11.3511 34.3857 11.155 34.3356 10.9695C34.3038 10.8451 34.2465 10.7287 34.1672 10.6277C34.0879 10.5267 33.9884 10.4434 33.8751 10.383C30.057 8.32425 25.8446 7.10112 21.5177 6.79478C20.8319 6.7609 20.1582 6.7439 19.4967 6.74377C13.5785 6.74377 8.64607 8.10401 4.81275 10.7971C4.03245 11.3167 3.3785 12.0046 2.89895 12.8101C2.41941 13.6157 2.12647 14.5184 2.04166 15.4521C2.02796 15.6199 2.02124 15.7873 2.02149 15.9541C2.0233 17.5907 2.67426 19.1599 3.83156 20.3172C4.98886 21.4745 6.55797 22.1255 8.19464 22.1273V22.1273ZM5.83079 12.4626C6.52659 11.9859 7.35124 11.7328 8.19464 11.7371C9.20799 11.736 10.1881 12.0988 10.9565 12.7595C11.7249 13.4201 12.2305 14.3347 12.3813 15.3368C12.5322 16.3388 12.3182 17.3617 11.7784 18.2193C11.2386 19.0769 10.4088 19.7122 9.44 20.0095C8.47124 20.3068 7.42793 20.2463 6.49997 19.8392C5.57202 19.432 4.8211 18.7052 4.3839 17.791C3.9467 16.8768 3.85229 15.836 4.11784 14.8581C4.38339 13.8801 4.99125 13.0301 5.83079 12.4626V12.4626ZM28.1955 15.231C26.5599 15.2338 24.9921 15.8853 23.8362 17.0426C22.6803 18.1999 22.0307 19.7685 22.0299 21.4042C22.0263 22.4393 22.2856 23.4584 22.7834 24.3659C23.2813 25.2734 24.0014 26.0397 24.8764 26.5928C24.9714 26.653 25.0469 26.7393 25.0941 26.8414C25.1412 26.9435 25.1579 27.057 25.1421 27.1684C25.1263 27.2797 25.0787 27.3841 25.005 27.4691C24.9314 27.5541 24.8348 27.616 24.7268 27.6474C21.5726 28.5331 18.2878 28.8597 15.021 28.6126C10.9887 28.2819 7.06299 27.1499 3.47379 25.2828C3.3254 25.2035 3.15983 25.1618 2.99159 25.1614C2.82815 25.1606 2.66721 25.2015 2.52397 25.2802C2.38073 25.359 2.25992 25.4729 2.17293 25.6112C2.10105 25.7258 2.05346 25.854 2.03309 25.9877C2.01273 26.1215 2.02003 26.258 2.05455 26.3888C2.08631 26.5132 2.14367 26.6296 2.22296 26.7306C2.30225 26.8316 2.40174 26.9149 2.51506 26.9753C6.3331 29.0342 10.5455 30.2574 14.8725 30.5635C21.6946 30.8988 27.3163 29.5553 31.5774 26.5612C32.3577 26.0416 33.0117 25.3537 33.4912 24.5482C33.9707 23.7426 34.2637 22.8398 34.3485 21.9062C34.3622 21.7387 34.3689 21.5714 34.3687 21.4042C34.3668 19.7675 33.7159 18.1984 32.5586 17.0411C31.4013 15.8838 29.8322 15.2328 28.1955 15.231H28.1955ZM30.5594 24.8957C29.8636 25.3724 29.0389 25.6254 28.1955 25.6211C27.1822 25.6222 26.2021 25.2594 25.4337 24.5988C24.6654 23.9382 24.1597 23.0236 24.0089 22.0215C23.858 21.0195 24.072 19.9966 24.6118 19.139C25.1517 18.2814 25.9815 17.6462 26.9502 17.3489C27.919 17.0516 28.9623 17.112 29.8902 17.5192C30.8182 17.9263 31.5691 18.6532 32.0063 19.5673C32.4435 20.4815 32.5379 21.5223 32.2723 22.5002C32.0068 23.4782 31.3989 24.3282 30.5594 24.8957V24.8957Z" fill="white" />
</svg>
