<svg width="38" height="38" viewBox="0 0 38 38" fill="none" xmlns="http://www.w3.org/2000/svg">
<path d="M16.4913 4.45897C16.6554 4.45894 16.8193 4.46724 16.9825 4.48384C18.2166 4.64512 19.3486 5.25354 20.164 6.19379C20.9794 7.13404 21.4215 8.34076 21.4066 9.58523L21.4136 26.993C21.4266 27.9851 21.2696 28.9721 20.9496 29.9111C20.5678 30.7467 20.0216 31.4969 19.3436 32.1169C18.6657 32.7369 17.8698 33.214 17.0035 33.5198C16.7896 33.5784 16.6002 33.7043 16.4633 33.8788C16.3264 34.0534 16.2493 34.2673 16.2434 34.4891C16.2431 34.6454 16.2792 34.7997 16.349 34.9396C16.4188 35.0795 16.5202 35.2012 16.6452 35.2951C16.7662 35.3879 16.9072 35.4512 17.057 35.48C17.2067 35.5088 17.3611 35.5023 17.508 35.461C19.4912 34.872 21.1888 33.5747 22.2779 31.8157C22.3188 31.7372 22.3766 31.6688 22.4472 31.6155C22.5178 31.5621 22.5994 31.5251 22.6861 31.5071C22.7727 31.4892 22.8623 31.4907 22.9483 31.5116C23.0343 31.5325 23.1146 31.5723 23.1833 31.628C24.2615 32.4848 25.6007 32.9462 26.9778 32.9353C30.0494 32.9353 32.549 30.7649 32.549 28.0966C32.549 25.4327 30.0393 23.2653 26.9537 23.2653C26.0204 23.2594 25.0984 23.4694 24.2598 23.879C24.1688 23.9245 24.0677 23.946 23.966 23.9414C23.8644 23.9369 23.7656 23.9064 23.6791 23.8529C23.5925 23.7994 23.5211 23.7246 23.4716 23.6357C23.4221 23.5468 23.3962 23.4468 23.3963 23.345V9.6544C23.4221 7.88251 22.7842 6.16504 21.608 4.83957C20.4319 3.51409 18.8024 2.67649 17.04 2.49139C15.8896 2.39894 14.7344 2.59683 13.6803 3.0669C12.6263 3.53696 11.7071 4.26416 11.0071 5.18179C10.9491 5.25055 10.8767 5.30581 10.7951 5.34372C10.7135 5.38163 10.6246 5.40126 10.5346 5.40126C10.4446 5.40126 10.3557 5.38163 10.274 5.34372C10.1924 5.30581 10.1201 5.25055 10.062 5.18179C9.14031 3.98683 7.85748 3.12134 6.40435 2.71407C6.25991 2.67329 6.10793 2.66684 5.96056 2.69525C5.81319 2.72366 5.6745 2.78613 5.55557 2.87768C5.4378 2.9666 5.34235 3.08173 5.27678 3.21393C5.21122 3.34614 5.17734 3.4918 5.17784 3.63937C5.1746 3.86863 5.2479 4.09243 5.38613 4.27536C5.52437 4.45829 5.71965 4.5899 5.94108 4.64939C6.96708 4.94805 7.86889 5.57069 8.51177 6.42426C9.15464 7.27783 9.50407 8.31651 9.50782 9.38509V23.8704C9.50856 24.1423 9.61706 24.4027 9.80953 24.5946C10.002 24.7866 10.2627 24.8944 10.5346 24.8944C10.8064 24.8944 11.0671 24.7866 11.2596 24.5946C11.452 24.4027 11.5605 24.1423 11.5613 23.8704V9.38509C11.5619 8.07811 12.0816 6.82488 13.0061 5.90107C13.9307 4.97726 15.1843 4.45853 16.4913 4.45897H16.4913ZM26.9778 30.9456C25.0029 30.9456 23.3963 29.6675 23.3963 28.0967C23.4199 27.6564 23.5503 27.2285 23.7763 26.8499C24.0024 26.4714 24.3171 26.1536 24.6935 25.9239C25.3629 25.4795 26.1503 25.2465 26.9537 25.2551C28.9193 25.2551 30.5593 26.5562 30.5593 28.0967C30.5593 29.6675 28.9528 30.9456 26.9778 30.9456Z" fill="white" />
</svg>
