<svg width="37" height="38" viewBox="0 0 37 38" fill="none" xmlns="http://www.w3.org/2000/svg">
<path d="M20.6516 4.72825C20.9189 4.72839 21.186 4.74376 21.4515 4.77426C22.4119 4.88569 23.3373 5.20163 24.1653 5.70081C24.9933 6.19998 25.7047 6.87079 26.2517 7.66807C26.7986 8.46534 27.1683 9.37056 27.336 10.3228C27.5036 11.275 27.4652 12.252 27.2235 13.1881L22.0106 27.9598C21.569 29.1872 21.5717 30.5304 22.0182 31.756C22.4647 32.9815 23.3267 34.0117 24.4542 34.6674C25.1761 35.0596 25.9744 35.2908 26.7942 35.3451C27.6139 35.3995 28.4357 35.2757 29.2031 34.9822C29.9705 34.6888 30.6652 34.2327 31.2396 33.6452C31.8139 33.0578 32.2542 32.353 32.5303 31.5792C32.5833 31.4349 32.6001 31.2798 32.5792 31.1275C32.5584 30.9752 32.5005 30.8304 32.4107 30.7057C32.3136 30.5663 32.1843 30.4523 32.0337 30.3736C31.8832 30.2948 31.7159 30.2535 31.546 30.2532C31.3512 30.2612 31.1638 30.3299 31.0099 30.4497C30.856 30.5694 30.7434 30.7343 30.6879 30.9211C30.4253 31.6436 29.9474 32.2681 29.3187 32.7104C28.69 33.1527 27.9408 33.3914 27.1721 33.3943C26.5503 33.3971 25.9378 33.2431 25.3914 32.9465C24.6693 32.514 24.1214 31.8423 23.8431 31.0479C23.5647 30.2536 23.5734 29.3869 23.8676 28.5982C29.0851 13.8097 29.0851 13.8097 29.0912 13.7947C29.4325 12.6544 29.5086 11.4512 29.3136 10.277C29.004 8.08928 27.8765 6.10028 26.1584 4.71102C24.4403 3.32175 22.2594 2.63554 20.0553 2.79075C17.8513 2.94595 15.788 3.93102 14.2816 5.54735C12.7751 7.16368 11.9375 9.29106 11.9375 11.5006C11.9369 12.2474 12.0334 12.9911 12.2243 13.713L13.02 15.9949C13.0549 16.0951 13.062 16.203 13.0406 16.307C13.0192 16.411 12.9701 16.5073 12.8985 16.5857C12.8269 16.6641 12.7354 16.7216 12.6337 16.7523C12.5321 16.7829 12.424 16.7856 12.321 16.7598C11.8537 16.6451 11.3742 16.5878 10.893 16.5892C10.0632 16.5905 9.24209 16.7575 8.47773 17.0804C7.71337 17.4033 7.02122 17.8757 6.44189 18.4697C5.86255 19.0638 5.40772 19.7676 5.10406 20.5398C4.80041 21.312 4.65406 22.1371 4.6736 22.9667C4.68799 23.3987 4.74553 23.8283 4.84539 24.2489C5.0667 25.1141 5.46983 25.9222 6.02792 26.6194C6.58602 27.3166 7.28626 27.8869 8.08202 28.2923C8.84742 28.6989 9.69065 28.9378 10.5556 28.993C11.4205 29.0483 12.2873 28.9187 13.0982 28.6128C14.5925 27.9876 15.7958 26.8214 16.4674 25.3473C17.139 23.8733 17.2296 22.2001 16.721 20.6622L14.122 13.2019C13.9759 12.6466 13.9016 12.0748 13.9007 11.5006C13.9028 10.5477 14.1052 9.60597 14.4947 8.73633C14.8841 7.8667 15.452 7.08864 16.1615 6.45259C17.3922 5.34022 18.9927 4.72557 20.6516 4.72825V4.72825ZM10.893 27.0572C10.0517 27.058 9.22899 26.8091 8.5291 26.3422C7.82921 25.8752 7.28358 25.2111 6.96125 24.4339C6.63892 23.6568 6.55439 22.8014 6.71835 21.9762C6.8823 21.151 7.28738 20.3929 7.88232 19.798C8.47726 19.203 9.23531 18.7979 10.0605 18.634C10.8858 18.47 11.7411 18.5546 12.5183 18.8769C13.2955 19.1992 13.9596 19.7449 14.4265 20.4448C14.8935 21.1446 15.1423 21.9673 15.1416 22.8087C15.1393 23.9348 14.691 25.0141 13.8947 25.8104C13.0985 26.6067 12.0191 27.055 10.893 27.0572Z" fill="white" />
</svg>
