<svg width="38" height="37" viewBox="0 0 38 37" fill="none" xmlns="http://www.w3.org/2000/svg">
<path d="M35.3126 30.029C35.3123 30.2901 35.2085 30.5404 35.0239 30.725C34.8393 30.9096 34.589 31.0134 34.3279 31.0137H3.60653C3.47699 31.014 3.34866 30.9888 3.22888 30.9395C3.1091 30.8902 3.00023 30.8177 2.90851 30.7262C2.81678 30.6348 2.74401 30.5261 2.69435 30.4065C2.6447 30.2868 2.61914 30.1586 2.61914 30.029C2.61914 29.8995 2.6447 29.7712 2.69435 29.6516C2.74401 29.5319 2.81678 29.4233 2.90851 29.3318C3.00023 29.2403 3.1091 29.1679 3.22888 29.1185C3.34866 29.0692 3.47699 29.044 3.60653 29.0444H34.3279C34.589 29.0446 34.8393 29.1484 35.0239 29.333C35.2085 29.5176 35.3123 29.7679 35.3126 30.029V30.029ZM3.60653 24.7119H14.2409C14.502 24.7119 14.7525 24.6081 14.9372 24.4235C15.1218 24.2388 15.2256 23.9884 15.2256 23.7272C15.2256 23.4661 15.1218 23.2156 14.9372 23.0309C14.7525 22.8463 14.502 22.7425 14.2409 22.7425H13.1539C13.0752 22.7426 12.9973 22.7269 12.9248 22.6964C12.8522 22.6658 12.7865 22.6211 12.7315 22.5649C11.5346 21.3381 10.7262 19.7856 10.4074 18.1016C10.0885 16.4176 10.2735 14.6769 10.9392 13.0975C11.6048 11.5182 12.7215 10.1702 14.1495 9.22241C15.5775 8.2746 17.2533 7.76906 18.9672 7.76906C20.6811 7.76906 22.357 8.2746 23.785 9.22241C25.213 10.1702 26.3297 11.5182 26.9953 13.0975C27.6609 14.6769 27.8459 16.4176 27.5271 18.1016C27.2082 19.7856 26.3998 21.3381 25.2029 22.5649C25.1479 22.6211 25.0822 22.6658 25.0097 22.6964C24.9371 22.7269 24.8592 22.7426 24.7805 22.7425H23.6936C23.4324 22.7425 23.182 22.8463 22.9973 23.0309C22.8126 23.2156 22.7089 23.4661 22.7089 23.7272C22.7089 23.9884 22.8126 24.2388 22.9973 24.4235C23.182 24.6081 23.4324 24.7119 23.6936 24.7119H34.3279C34.4639 24.7121 34.5984 24.6842 34.7231 24.6298C34.8477 24.5755 34.9597 24.4958 35.052 24.396C35.1443 24.2962 35.2149 24.1783 35.2593 24.0498C35.3038 23.9213 35.3211 23.785 35.3103 23.6495C35.2785 23.3949 35.1533 23.1612 34.959 22.9937C34.7647 22.8261 34.5152 22.7366 34.2587 22.7425H28.7115C28.6075 22.7425 28.5054 22.715 28.4154 22.6628C28.3254 22.6107 28.2508 22.5357 28.1991 22.4455C28.1474 22.3553 28.1203 22.2531 28.1208 22.1491C28.1212 22.0451 28.149 21.9431 28.2015 21.8533C29.158 20.2143 29.6577 18.3488 29.6485 16.4511C29.6122 13.7274 28.5475 11.1181 26.6677 9.14659C24.788 7.17512 22.2323 5.98731 19.5134 5.82144C17.5925 5.72454 15.681 6.14775 13.9805 7.04643C12.28 7.94511 10.8535 9.28597 9.85144 10.9276C8.84932 12.5693 8.30874 14.451 8.28667 16.3742C8.2646 18.2974 8.76187 20.191 9.72605 21.8552C9.77828 21.9449 9.80591 22.0469 9.80615 22.1507C9.80639 22.2546 9.77924 22.3567 9.72743 22.4467C9.67562 22.5367 9.60099 22.6114 9.51107 22.6634C9.42114 22.7153 9.31911 22.7426 9.21526 22.7425H3.60653C3.34625 22.7454 3.09743 22.85 2.91338 23.0341C2.72933 23.2181 2.62469 23.467 2.62188 23.7272C2.62212 23.9883 2.72594 24.2386 2.91055 24.4232C3.09515 24.6078 3.34546 24.7116 3.60653 24.7119V24.7119Z" fill="white" />
</svg>
