<svg width="38" height="38" viewBox="0 0 38 38" fill="none" xmlns="http://www.w3.org/2000/svg">
<path d="M29.282 35.0223H29.2817C29.1729 35.1046 29.0484 35.1638 28.9159 35.1962C28.7834 35.2287 28.6457 35.2336 28.5112 35.2108C28.3767 35.188 28.2483 35.138 28.1339 35.0637C28.0194 34.9894 27.9214 34.8925 27.8459 34.7789C24.9513 30.4816 23.2702 25.4826 22.9801 20.3095C22.9712 20.1579 22.9048 20.0155 22.7943 19.9114C22.6839 19.8072 22.5378 19.7492 22.386 19.7491H15.6051C15.4533 19.7492 15.3073 19.8072 15.1969 19.9114C15.0864 20.0155 15.02 20.158 15.0111 20.3095C14.721 25.4826 13.0399 30.4816 10.1453 34.7789C10.074 34.888 9.98196 34.9819 9.87434 35.0554C9.76673 35.1289 9.64569 35.1805 9.51814 35.2072C9.39058 35.234 9.25902 35.2353 9.13095 35.2112C9.00288 35.1871 8.88081 35.1379 8.77173 35.0666C8.66264 34.9953 8.56866 34.9033 8.49516 34.7956C8.42166 34.688 8.37007 34.567 8.34335 34.4394C8.31663 34.3119 8.31529 34.1803 8.33942 34.0522C8.36354 33.9242 8.41265 33.8021 8.48395 33.693C11.1509 29.7384 12.7142 25.1437 13.0126 20.3831C13.0179 20.3019 13.0064 20.2204 12.9789 20.1437C12.9515 20.0671 12.9086 19.9968 12.8529 19.9374C12.7972 19.878 12.7299 19.8306 12.6552 19.7982C12.5805 19.7659 12.4999 19.7491 12.4185 19.7491H9.97947C9.71636 19.7491 9.46403 19.6446 9.27798 19.4586C9.09193 19.2725 8.98741 19.0202 8.98741 18.7571C8.98741 18.494 9.09193 18.2416 9.27798 18.0556C9.46403 17.8695 9.71636 17.765 9.97947 17.765H12.4422C12.5227 17.765 12.6023 17.7486 12.6763 17.7169C12.7503 17.6852 12.8171 17.6388 12.8727 17.5806C12.9282 17.5223 12.9714 17.4534 12.9996 17.378C13.0278 17.3026 13.0404 17.2223 13.0366 17.1419C12.8354 12.4043 11.392 7.80294 8.85099 3.79939C8.71443 3.57559 8.67199 3.30683 8.73295 3.05184C8.79392 2.79685 8.95333 2.57635 9.17635 2.43852C9.39938 2.30069 9.66789 2.25674 9.92322 2.31626C10.1786 2.37578 10.4 2.53394 10.539 2.75618C13.2908 7.08594 14.845 12.0681 15.0429 17.1945C15.0494 17.348 15.1149 17.4929 15.2257 17.5992C15.3366 17.7055 15.4841 17.7649 15.6377 17.765H22.3535C22.5071 17.7649 22.6546 17.7055 22.7655 17.5992C22.8763 17.4929 22.9418 17.348 22.9484 17.1945C23.1462 12.0681 24.7003 7.08593 27.4522 2.75617C27.5206 2.64518 27.6102 2.54877 27.7159 2.47244C27.8216 2.39611 27.9414 2.34137 28.0682 2.31134C28.1951 2.28131 28.3267 2.27659 28.4554 2.29743C28.5841 2.31828 28.7074 2.36429 28.8183 2.43284C28.9293 2.50138 29.0256 2.59112 29.1018 2.69691C29.178 2.80271 29.2326 2.92248 29.2625 3.0494C29.2924 3.17631 29.297 3.30788 29.276 3.43656C29.255 3.56525 29.2089 3.68854 29.1402 3.79938C26.5993 7.80294 25.1558 12.4043 24.9546 17.1419C24.9508 17.2223 24.9634 17.3026 24.9916 17.378C25.0198 17.4534 25.063 17.5223 25.1185 17.5806C25.1741 17.6388 25.2409 17.6852 25.3149 17.7169C25.3889 17.7486 25.4686 17.765 25.5491 17.765H28.0117C28.2748 17.765 28.5272 17.8695 28.7132 18.0556C28.8993 18.2416 29.0038 18.494 29.0038 18.7571C29.0038 19.0202 28.8993 19.2725 28.7132 19.4586C28.5272 19.6446 28.2748 19.7491 28.0117 19.7491H25.5727C25.4912 19.7491 25.4107 19.7659 25.3359 19.7982C25.2612 19.8306 25.194 19.878 25.1383 19.9374C25.0826 19.9968 25.0397 20.0671 25.0122 20.1437C24.9848 20.2204 24.9733 20.3019 24.9786 20.3831C25.277 25.1437 26.8403 29.7384 29.5072 33.693C29.6456 33.9017 29.6994 34.1553 29.6576 34.4022C29.6157 34.6491 29.4815 34.8708 29.282 35.0223V35.0223Z" fill="white" />
</svg>
