<svg width="38" height="37" viewBox="0 0 38 37" fill="none" xmlns="http://www.w3.org/2000/svg">
<path d="M10.8455 15.5637C10.6519 15.5637 10.4627 15.621 10.3017 15.7286C10.1407 15.8361 10.0152 15.989 9.9411 16.1679C9.86701 16.3468 9.84765 16.5436 9.88545 16.7335C9.92326 16.9234 10.0165 17.0978 10.1535 17.2346L13.9939 21.0751C14.0485 21.1296 14.0918 21.1943 14.1213 21.2656C14.1508 21.3368 14.166 21.4132 14.166 21.4903C14.166 21.5674 14.1508 21.6438 14.1213 21.7151C14.0918 21.7863 14.0485 21.851 13.9939 21.9056L3.17615 32.7256C2.99863 32.8903 2.8846 33.1121 2.85399 33.3523C2.82338 33.5925 2.87813 33.8358 3.00867 34.0398C3.09107 34.1564 3.19792 34.2535 3.32176 34.3245C3.4456 34.3955 3.58344 34.4386 3.72566 34.4508C3.86788 34.463 4.01106 34.444 4.14517 34.3951C4.27929 34.3463 4.40113 34.2687 4.50217 34.1679L15.3788 23.2901C15.4911 23.184 15.6396 23.1249 15.7941 23.1249C15.9485 23.1249 16.0971 23.184 16.2093 23.2901L20.0513 27.1324C20.2349 27.316 20.4839 27.4191 20.7435 27.4191C21.0031 27.419 21.2521 27.3159 21.4356 27.1323C21.6192 26.9487 21.7223 26.6997 21.7222 26.44C21.7222 26.1804 21.619 25.9315 21.4354 25.7479L17.5935 21.9056C17.5389 21.851 17.4957 21.7863 17.4661 21.7151C17.4366 21.6438 17.4214 21.5674 17.4214 21.4903C17.4214 21.4132 17.4366 21.3368 17.4661 21.2656C17.4957 21.1943 17.5389 21.1296 17.5935 21.0751L32.3626 6.3033C32.4447 6.22118 32.5493 6.16524 32.6632 6.14255C32.777 6.11987 32.8951 6.13146 33.0024 6.17586C33.1097 6.22026 33.2014 6.29548 33.266 6.39201C33.3306 6.48853 33.3651 6.60203 33.3651 6.71816L33.3674 11.8594C33.3585 12.1018 33.4349 12.3397 33.5833 12.5316C33.7317 12.7235 33.9427 12.8573 34.1796 12.9098C34.3206 12.9342 34.4652 12.9275 34.6034 12.8902C34.7416 12.8528 34.8699 12.7857 34.9794 12.6936C35.0889 12.6014 35.1769 12.4864 35.2373 12.3567C35.2977 12.2269 35.3289 12.0855 35.3289 11.9424L35.3251 2.10079C35.3251 2.06279 35.3101 2.02632 35.2833 1.99937C35.2565 1.97243 35.2201 1.9572 35.1821 1.95702L25.4449 1.95702C25.2027 1.94798 24.9651 2.02421 24.7733 2.17241C24.5816 2.32061 24.4479 2.53138 24.3957 2.76801C24.3711 2.90887 24.3777 3.0534 24.415 3.19145C24.4522 3.3295 24.5192 3.45774 24.6112 3.56718C24.7032 3.67661 24.818 3.7646 24.9477 3.82496C25.0773 3.88533 25.2185 3.91661 25.3615 3.91663H30.5624C30.6786 3.91651 30.7922 3.95089 30.8889 4.0154C30.9855 4.07991 31.0609 4.17166 31.1053 4.27903C31.1498 4.38639 31.1614 4.50453 31.1387 4.61849C31.1159 4.73246 31.0599 4.83711 30.9776 4.91919L16.2086 19.6905C16.0963 19.7966 15.9477 19.8557 15.7933 19.8557C15.6389 19.8557 15.4903 19.7966 15.3781 19.6905L11.5376 15.8501C11.4469 15.759 11.339 15.6868 11.2202 15.6376C11.1015 15.5885 10.9741 15.5634 10.8455 15.5637V15.5637Z" fill="white" />
</svg>
