<svg width="37" height="37" viewBox="0 0 37 37" fill="none" xmlns="http://www.w3.org/2000/svg">
<path d="M16.3751 8.83375C17.024 8.83218 17.647 9.08838 18.1071 9.54603C18.5673 10.0037 18.8268 10.6253 18.8287 11.2743V23.1615C18.8304 24.6886 19.4378 26.1527 20.5177 27.2325C21.5975 28.3124 23.0617 28.9198 24.5888 28.9215H29.9032C30.0202 28.9216 30.1346 28.9563 30.2319 29.0214C30.3292 29.0864 30.4051 29.1789 30.4499 29.287C30.4947 29.3951 30.5064 29.5141 30.4837 29.6289C30.4609 29.7437 30.4046 29.8492 30.3219 29.932L27.1565 33.1012C26.9716 33.2869 26.8679 33.5384 26.868 33.8004C26.8682 34.0624 26.9722 34.3137 27.1573 34.4992C27.3458 34.6789 27.5963 34.7791 27.8567 34.7791C28.1171 34.7791 28.3676 34.6789 28.5561 34.4992L35.0124 28.0367C35.0395 28.0096 35.0547 27.9729 35.0547 27.9347C35.0547 27.8964 35.0395 27.8598 35.0124 27.8327L28.5692 21.3891C28.3839 21.2038 28.1326 21.0997 27.8706 21.0997C27.6085 21.0997 27.3573 21.2038 27.172 21.3891C26.9867 21.5744 26.8826 21.8257 26.8826 22.0877C26.8826 22.3497 26.9867 22.601 27.172 22.7863L30.3219 25.9366C30.4048 26.0194 30.4613 26.1249 30.4842 26.2398C30.5072 26.3547 30.4955 26.4738 30.4506 26.5821C30.4058 26.6903 30.3298 26.7828 30.2324 26.8479C30.1349 26.9129 30.0204 26.9476 29.9032 26.9475H24.561C23.5645 26.9464 22.6092 26.55 21.9046 25.8454C21.2 25.1407 20.8037 24.1853 20.8027 23.1888V11.4798C20.7984 10.8568 20.6713 10.2408 20.4288 9.667C20.1862 9.09318 19.833 8.57278 19.3893 8.13552C18.5958 7.32878 17.5144 6.87018 16.3828 6.86052C16.3674 6.86052 16.352 6.86052 16.3373 6.8609C15.2248 6.86936 14.1581 7.3045 13.357 8.07653C13.2467 8.183 13.0994 8.24251 12.946 8.24251C12.7927 8.24251 12.6454 8.183 12.535 8.07653C11.9204 7.49799 11.1537 7.10647 10.3247 6.94779C9.49565 6.78911 8.63857 6.86984 7.85374 7.18052C7.76773 7.21535 7.67473 7.22947 7.58226 7.22174C7.48979 7.21401 7.40043 7.18464 7.3214 7.13601C7.24237 7.08738 7.17589 7.02084 7.12731 6.94177C7.07874 6.86271 7.04944 6.77333 7.04177 6.68085C6.95483 5.66281 6.58133 4.6902 5.96451 3.87564C5.34769 3.06108 4.51277 2.43788 3.55643 2.07819C3.40832 2.02657 3.2498 2.01216 3.09481 2.03624C2.93983 2.06032 2.79314 2.12214 2.66768 2.21626C2.54221 2.31037 2.44181 2.4339 2.37533 2.57596C2.30885 2.71802 2.27832 2.87424 2.28644 3.03088C2.2931 3.23912 2.36205 3.44059 2.48438 3.60925C2.60671 3.77791 2.77681 3.90601 2.9727 3.97701C3.59822 4.23026 4.13348 4.66518 4.5094 5.22562C4.88533 5.78606 5.08465 6.44631 5.08166 7.12115V25.2203C5.07574 25.4775 5.16555 25.7277 5.33366 25.9225C5.50178 26.1172 5.73623 26.2426 5.99155 26.2743C6.12732 26.285 6.26383 26.2675 6.3925 26.2229C6.52117 26.1782 6.6392 26.1074 6.73916 26.0149C6.83912 25.9224 6.91884 25.8102 6.97331 25.6854C7.02778 25.5606 7.05582 25.4258 7.05566 25.2896L7.05566 11.3822C7.04668 10.7618 7.267 10.1598 7.67437 9.69175C8.08175 9.22368 8.64754 8.92242 9.2633 8.8457C9.60177 8.8117 9.9436 8.84948 10.2665 8.95657C10.5894 9.06366 10.886 9.23766 11.1371 9.4672C11.3883 9.69644 11.5891 9.97552 11.7265 10.2867C11.8639 10.5978 11.9349 10.9341 11.9351 11.2743V25.2897C11.9392 25.5529 12.0467 25.804 12.2343 25.9887C12.4219 26.1734 12.6747 26.277 12.9379 26.277C13.2012 26.277 13.454 26.1734 13.6416 25.9887C13.8292 25.804 13.9367 25.5529 13.9408 25.2897V11.3849C13.9337 10.7678 14.1521 10.1693 14.5551 9.70183C14.958 9.23437 15.5177 8.93007 16.1291 8.84607C16.2108 8.83774 16.2929 8.83362 16.3751 8.83375V8.83375Z" fill="white" />
</svg>
