<svg width="38" height="38" viewBox="0 0 38 38" fill="none" xmlns="http://www.w3.org/2000/svg">
<path d="M8.00507 2.81017C7.86202 2.80871 7.72037 2.83843 7.58997 2.89727C7.45957 2.95611 7.34356 3.04264 7.24999 3.15086C7.15438 3.26197 7.08372 3.39229 7.04277 3.53304C7.00181 3.67378 6.99153 3.82167 7.0126 3.96673C7.3296 6.23021 8.26448 8.36249 9.71451 10.1292C11.1645 11.8959 13.0736 13.2287 15.2318 13.981C15.3464 14.0213 15.446 14.0955 15.5174 14.1937C15.5888 14.2919 15.6287 14.4096 15.6317 14.531C15.6347 14.6524 15.6007 14.7719 15.5342 14.8735C15.4677 14.9752 15.3719 15.0542 15.2594 15.1001C13.2628 15.9113 11.5553 17.3027 10.3579 19.0946C9.16039 20.8864 8.52792 22.9963 8.54222 25.1514C8.58068 27.9122 9.66075 30.5565 11.5661 32.5547C13.4715 34.553 16.0614 35.7576 18.8172 35.9274C21.369 36.0572 23.8844 35.2804 25.9185 33.7342C27.9526 32.1881 29.3743 29.9723 29.932 27.4789C30.4898 24.9855 30.1476 22.3751 28.966 20.1097C27.7845 17.8443 25.8398 16.0698 23.4759 15.1002C23.3634 15.0542 23.2676 14.9752 23.2011 14.8736C23.1346 14.7719 23.1006 14.6525 23.1036 14.531C23.1066 14.4096 23.1465 14.292 23.2179 14.1937C23.2893 14.0955 23.389 14.0213 23.5036 13.981C25.6598 13.2111 27.5652 11.8675 29.0146 10.095C30.4639 8.32247 31.4023 6.18816 31.7286 3.92191C31.7488 3.781 31.7386 3.6374 31.6987 3.50077C31.6587 3.36414 31.59 3.23766 31.497 3.12985C31.41 3.02879 31.302 2.94786 31.1806 2.89267C31.0591 2.83748 30.9272 2.80934 30.7938 2.81021C30.5503 2.79691 30.3102 2.87293 30.1188 3.024C29.9273 3.17508 29.7975 3.39082 29.7538 3.63077C29.4105 6.14166 28.1692 8.44318 26.2596 10.1093C24.3501 11.7755 21.9016 12.6935 19.3673 12.6934C16.8331 12.6933 14.3847 11.7751 12.4752 10.1088C10.5658 8.44252 9.32469 6.14092 8.98156 3.63C8.9591 3.40852 8.85641 3.20291 8.69285 3.05191C8.52928 2.9009 8.31613 2.81493 8.09357 2.81021L8.00507 2.81017ZM19.3677 33.9451C17.6213 33.9451 15.9142 33.4273 14.4622 32.4571C13.0102 31.4869 11.8785 30.1079 11.2102 28.4945C10.5419 26.8811 10.367 25.1057 10.7077 23.3929C11.0484 21.6802 11.8893 20.1069 13.1242 18.872C14.359 17.6372 15.9323 16.7963 17.6451 16.4556C19.3579 16.1149 21.1332 16.2897 22.7466 16.958C24.36 17.6263 25.739 18.758 26.7092 20.2101C27.6794 21.6621 28.1973 23.3692 28.1973 25.1155C28.1946 27.4565 27.2635 29.7008 25.6082 31.3561C23.9529 33.0114 21.7086 33.9425 19.3677 33.9451V33.9451Z" fill="white" />
</svg>
