<svg width="37" height="38" viewBox="0 0 37 38" fill="none" xmlns="http://www.w3.org/2000/svg">
<path d="M30.1724 33.3244L30.1671 33.3221C29.86 33.1977 29.5445 33.0564 29.2122 32.8822C29.0874 32.8213 29.0108 32.7827 28.9388 32.7394C28.852 32.6869 28.7802 32.613 28.7304 32.5246C28.6806 32.4362 28.6545 32.3365 28.6547 32.2351C28.6549 32.1337 28.6812 32.034 28.7313 31.9458C28.7813 31.8576 28.8533 31.7838 28.9403 31.7317C29.6214 31.317 30.197 30.75 30.6219 30.0753C31.2143 29.1069 31.5241 27.9921 31.5163 26.8568C31.5163 23.8302 29.3775 21.3679 26.7487 21.3679C26.073 21.368 25.4076 21.5333 24.8106 21.8496C24.7209 21.8965 24.6207 21.9195 24.5196 21.9164C24.4185 21.9133 24.3199 21.8841 24.2333 21.8317C24.1468 21.7793 24.0752 21.7054 24.0255 21.6173C23.9759 21.5291 23.9498 21.4297 23.9499 21.3285V12.0992C23.9401 10.8546 23.4382 9.66438 22.5539 8.78847C22.1608 8.38654 21.6917 8.06674 21.1739 7.84766C20.6561 7.62859 20.0999 7.5146 19.5376 7.51234C18.4251 7.51502 17.3567 7.94769 16.5557 8.71988C16.4461 8.82557 16.2998 8.8846 16.1475 8.88453C15.9953 8.88446 15.849 8.8253 15.7395 8.71952C15.1289 8.14553 14.3677 7.75707 13.5446 7.59951C12.7216 7.44194 11.8707 7.52177 11.0913 7.82967C11.0059 7.86444 10.9135 7.87861 10.8216 7.87103C10.7297 7.86346 10.6408 7.83436 10.5622 7.78609C10.4837 7.73781 10.4176 7.67172 10.3693 7.59316C10.321 7.5146 10.2918 7.42577 10.2842 7.33386C10.198 6.3228 9.82705 5.35685 9.21449 4.54786C8.60192 3.73887 7.77276 3.11993 6.82298 2.76269C6.67587 2.71167 6.51848 2.69757 6.36464 2.72161C6.2108 2.74564 6.06522 2.80709 5.94068 2.90055C5.81614 2.99401 5.71646 3.11663 5.65039 3.25762C5.58432 3.39862 5.55389 3.55368 5.56176 3.70918C5.56838 3.91599 5.63685 4.11607 5.75833 4.28356C5.87982 4.45105 6.04874 4.57827 6.24327 4.64878C6.86449 4.90011 7.3961 5.33191 7.76943 5.88843C8.14276 6.44494 8.34066 7.10061 8.33758 7.77074V25.8139C8.33784 26.0738 8.44119 26.323 8.62496 26.5067C8.80872 26.6905 9.05789 26.7939 9.31778 26.7941C9.44639 26.7956 9.574 26.7712 9.69294 26.7222C9.81189 26.6733 9.91974 26.6008 10.01 26.5092C10.1018 26.4182 10.1745 26.3099 10.2239 26.1905C10.2733 26.0711 10.2985 25.9431 10.298 25.8139V11.9974C10.2886 11.3807 10.5081 10.7824 10.9139 10.318C11.3198 9.85358 11.8833 9.55599 12.4957 9.48263C12.8313 9.44867 13.1703 9.48632 13.4903 9.59311C13.8103 9.6999 14.1039 9.87339 14.3519 10.1021C14.6011 10.3297 14.8002 10.6067 14.9365 10.9155C15.0728 11.2242 15.1434 11.558 15.1437 11.8955V25.8139C15.1478 26.0754 15.2545 26.3247 15.4408 26.5081C15.6271 26.6916 15.8781 26.7944 16.1395 26.7944C16.401 26.7944 16.652 26.6916 16.8383 26.5081C17.0246 26.3247 17.1313 26.0754 17.1354 25.8139V12.0054C17.1283 11.3926 17.3451 10.7983 17.7451 10.334C18.145 9.8697 18.7008 9.56736 19.3079 9.48374C19.6459 9.44884 19.9875 9.48517 20.3106 9.59038C20.6337 9.69559 20.9312 9.86735 21.1838 10.0946C21.4365 10.3218 21.6387 10.5995 21.7775 10.9097C21.9163 11.2199 21.9885 11.5557 21.9895 11.8955V26.8802C21.9779 28.0004 22.2858 29.1006 22.8771 30.052C22.9079 30.09 22.9346 30.1312 22.9567 30.1749C23.3673 30.825 23.8651 31.4158 24.4361 31.9308C24.505 31.9949 24.5575 32.0746 24.5892 32.1631C24.6209 32.2517 24.6309 32.3465 24.6184 32.4398C24.6058 32.533 24.5711 32.6219 24.5172 32.6989C24.4632 32.776 24.3916 32.839 24.3082 32.8826C23.9679 33.0607 23.6176 33.2193 23.2592 33.3574C23.0636 33.431 22.8977 33.5669 22.787 33.7441C22.6763 33.9212 22.627 34.1299 22.6466 34.3379C22.6573 34.4915 22.7039 34.6405 22.7828 34.7727C22.8617 34.9049 22.9706 35.0167 23.1007 35.0991C23.2223 35.1784 23.3609 35.2279 23.5052 35.2438C23.6495 35.2596 23.7956 35.2412 23.9315 35.1902C24.8081 34.8503 25.6517 34.4307 26.4516 33.9367C26.5441 33.88 26.6505 33.8503 26.759 33.8507C26.8675 33.8511 26.9737 33.8816 27.0657 33.939C27.8643 34.4362 28.709 34.8551 29.5881 35.1899C29.7345 35.2384 29.8902 35.2517 30.0426 35.2285C30.1951 35.2054 30.3399 35.1466 30.4652 35.0569C30.5906 34.9671 30.693 34.849 30.764 34.7121C30.835 34.5753 30.8726 34.4236 30.8738 34.2694C30.8636 34.0602 30.7914 33.8587 30.6666 33.6905C30.5417 33.5222 30.3697 33.3948 30.1724 33.3244V33.3244ZM26.7487 30.3854C26.351 30.3723 25.9618 30.267 25.6118 30.0778C25.2618 29.8885 24.9605 29.6206 24.7317 29.295C24.6846 29.2366 24.6433 29.1738 24.6084 29.1074C24.1707 28.4477 23.9413 27.6718 23.9499 26.8802C23.9499 24.9439 25.2318 23.3282 26.7487 23.3282C28.2963 23.3282 29.556 24.911 29.556 26.8568C29.556 28.8025 28.2963 30.3855 26.7487 30.3855V30.3854Z" fill="white" />
</svg>
